<svg width="51" height="51" viewBox="0 0 51 51" fill="none" xmlns="http://www.w3.org/2000/svg">
<g id="book 1" clip-path="url(#clip0_5412_1086)">
<path id="Vector" d="M38.0111 7.93945H38.4667C39.0487 7.96527 39.6308 8.0169 40.2129 8.04271C42.3641 8.17178 44.4899 8.48155 46.6158 8.89457C47.375 9.04945 47.704 9.46247 47.704 10.2369V12.0439C47.704 12.7667 48.1089 13.2055 48.8428 13.2313C49.0453 13.2313 49.2478 13.2055 49.4502 13.2313C49.6527 13.2571 49.8551 13.2829 50.0323 13.3604C50.5385 13.6185 50.6903 14.0573 50.6903 14.6253V38.8903C50.6903 39.4582 50.5131 39.9229 49.9817 40.1552C49.7539 40.2585 49.5008 40.2843 49.2731 40.2843H29.2293C28.6726 40.2843 28.4701 40.465 28.3942 41.0329C28.3182 41.5233 28.1158 41.7299 27.6096 41.7299H23.2061C22.6999 41.7299 22.4722 41.5233 22.4215 41.0071C22.3962 40.6973 22.2697 40.4392 21.966 40.3359C21.8142 40.2843 21.6623 40.2843 21.5105 40.2843H1.23895C0.580945 40.2068 0.176021 39.7938 0.125405 39.1227C0.100098 38.942 0.100098 38.7613 0.100098 38.6064V14.3671C0.125405 14.3413 0.125405 14.3155 0.150713 14.2639C0.30256 13.5927 0.707484 13.2571 1.36549 13.2313H1.89695C2.7068 13.2313 3.11172 12.8183 3.11172 11.9922V10.1594C3.11172 9.48829 3.46603 9.04945 4.12403 8.92038C6.70542 8.42992 9.31212 8.04271 11.9441 8.01689C12.096 8.01689 12.2478 7.99108 12.3744 7.96527H12.6781C12.8299 7.99108 12.9817 7.99108 13.1336 8.01689C14.399 8.01689 15.6391 8.12015 16.8791 8.32666C18.5241 8.61061 20.1438 9.04945 21.6623 9.74643C22.8012 10.2627 23.8135 10.9339 24.8511 11.6308C25.2054 11.889 25.5597 11.889 25.9393 11.6308C26.3189 11.3727 26.6985 11.1146 27.0782 10.8822C28.6472 9.84968 30.3429 9.15271 32.1397 8.68806C33.9113 8.22341 35.7081 8.01689 37.5303 7.99108C37.7074 7.96527 37.8593 7.93945 38.0111 7.93945ZM4.63019 22.8341V34.3471C4.63019 35.2506 5.18696 35.741 6.07273 35.612C7.11035 35.4571 8.12266 35.328 9.16027 35.1989C11.8176 34.915 14.4496 34.9408 17.0816 35.4054C18.8785 35.7152 20.5994 36.2315 22.2444 37.0834C22.7252 37.3415 23.2061 37.6254 23.6869 37.8836C24.1678 38.1417 24.598 37.9094 24.6486 37.3415V37.0317C24.6486 29.6748 24.6486 22.3178 24.6233 14.9608V14.6511C24.598 13.9283 24.2943 13.3346 23.7122 12.8699C22.8012 12.1471 21.7888 11.5534 20.7512 11.0887C18.347 10.0046 15.8162 9.5141 13.2095 9.41085C10.7294 9.30759 8.2745 9.5141 5.84496 9.95294C4.98449 10.1078 4.65549 10.5208 4.65549 11.3985C4.63019 15.2448 4.63019 19.0394 4.63019 22.8341ZM46.1855 22.8599V18.5232V11.3469C46.1855 10.5983 45.7806 10.1078 45.0973 10.0046C44.0344 9.84968 42.9714 9.6948 41.9085 9.59154C39.5043 9.3334 37.1 9.35922 34.7211 9.74643C32.0132 10.1853 29.533 11.1146 27.2806 12.7408C26.5214 13.2829 26.1671 13.9799 26.1671 14.935V37.1092C26.1671 37.2382 26.1671 37.3415 26.1924 37.4706C26.243 37.832 26.572 38.0901 26.9263 37.9868C27.0529 37.961 27.1541 37.8836 27.2553 37.832C28.4954 37.0834 29.7861 36.4896 31.178 36.0508C32.7471 35.5603 34.3668 35.2248 36.0118 35.1473C37.3784 35.0699 38.7703 35.0441 40.137 35.1215C41.6807 35.2248 43.2245 35.4571 44.7683 35.6378C45.1985 35.6894 45.6034 35.6378 45.9071 35.2764C46.1349 35.0182 46.1855 34.7085 46.1855 34.3729V22.8599Z" fill="#55BB6E"/>
</g>
<defs>
<clipPath id="clip0_5412_1086">
<rect width="50.6155" height="51.6278" fill="white" transform="translate(0.0341797 -1.0166)"/>
</clipPath>
</defs>
</svg>
