<svg width="46" height="46" viewBox="0 0 46 46" fill="none" xmlns="http://www.w3.org/2000/svg">
<g id="Frame 1000004098" clip-path="url(#clip0_5412_1105)">
<g id="Group 57703">
<rect id="Rectangle 5272" x="1.94527" y="6.15865" width="42.113" height="30.8828" rx="4.2113" stroke="#0073FF" stroke-width="2.80753"/>
<rect id="Rectangle 5273" x="0.541504" y="41.2529" width="44.9205" height="2.80753" rx="1.40377" fill="#0073FF"/>
<path id="Vector" d="M11.512 31.4271C11.3267 31.4264 11.1442 31.375 10.9803 31.2775C10.8163 31.18 10.6758 31.0392 10.5706 30.8671C10.4654 30.695 10.3987 30.4968 10.3762 30.2894C10.3537 30.0819 10.376 29.8714 10.4414 29.6759L12.488 23.5215V17.6512C12.4881 17.5187 12.5164 17.3882 12.5705 17.2706C12.6515 17.0882 12.7858 16.9429 12.9508 16.8591L23.0406 11.9841C23.3257 11.8458 23.6328 11.7744 23.9432 11.7744C24.2536 11.7744 24.5608 11.8458 24.8459 11.9841L33.2983 16.067C33.575 16.1979 33.8112 16.4181 33.9773 16.6999C34.1433 16.9817 34.2319 17.3126 34.2317 17.6509C34.2315 17.9892 34.1427 18.32 33.9764 18.6016C33.81 18.8832 33.5736 19.1031 33.2968 19.2337L30.8163 20.4339V25.7291C30.8174 26.0488 30.739 26.3626 30.59 26.6346C30.4409 26.9067 30.2273 27.1263 29.9732 27.2685L24.9666 30.0891C24.6482 30.267 24.2977 30.3595 23.9425 30.3595C23.5872 30.3595 23.2367 30.267 22.9184 30.0891L17.9132 27.2685C17.6593 27.1262 17.4457 26.9065 17.2967 26.6345C17.1477 26.3624 17.0692 26.0488 17.0701 25.7291V20.4322L14.0154 18.9565V23.5215L16.0636 29.6828C16.1284 29.8779 16.1504 30.0879 16.1276 30.2948C16.1048 30.5016 16.038 30.6992 15.9328 30.8706C15.8276 31.0419 15.6871 31.1821 15.5235 31.279C15.3598 31.3759 15.1778 31.4267 14.9929 31.4271H11.512ZM14.44 29.7051L13.2517 26.1303L12.0634 29.7051H14.44ZM18.5975 25.7291L23.6026 28.5497C23.7086 28.6086 23.8251 28.6393 23.9432 28.6393C24.0614 28.6393 24.1779 28.6086 24.2838 28.5497L29.289 25.7291V21.1709L24.8459 23.3165C24.5609 23.4553 24.2537 23.5269 23.9432 23.5269C23.6328 23.5269 23.3256 23.4553 23.0406 23.3165L18.5975 21.1709V25.7291ZM23.6423 21.7358C23.7378 21.7814 23.8403 21.8049 23.944 21.8049C24.0476 21.8049 24.1502 21.7814 24.2456 21.7358L32.6965 17.6512L24.2441 13.5666C24.1488 13.5216 24.0465 13.4985 23.9432 13.4985C23.8399 13.4985 23.7376 13.5216 23.6423 13.5666L15.1899 17.6512L23.6423 21.7358Z" fill="#0073FF"/>
</g>
</g>
<defs>
<clipPath id="clip0_5412_1105">
<rect width="44.9205" height="44.9205" fill="white" transform="translate(0.540039 0.541016)"/>
</clipPath>
</defs>
</svg>
