<svg width="48" height="48" viewBox="0 0 48 48" fill="none" xmlns="http://www.w3.org/2000/svg">
<g id="Group 57712">
<path id="Vector" d="M23.9998 3.27186C28.0995 3.27186 32.107 4.48754 35.5157 6.76516C38.9244 9.04278 41.5812 12.28 43.15 16.0676C44.7189 19.8551 45.1293 24.0228 44.3295 28.0437C43.5297 32.0645 41.5556 35.7579 38.6567 38.6567C35.7579 41.5556 32.0645 43.5297 28.0437 44.3295C24.0228 45.1293 19.8551 44.7188 16.0676 43.15C12.2801 41.5811 9.04279 38.9244 6.76517 35.5157C4.48755 32.107 3.27188 28.0994 3.27188 23.9998C3.27188 18.5024 5.45571 13.2302 9.34296 9.34295C13.2302 5.4557 18.5024 3.27186 23.9998 3.27186ZM23.9998 -0.000976562C19.2529 -0.000976562 14.6126 1.40665 10.6657 4.04389C6.7188 6.68113 3.64255 10.4295 1.82599 14.8151C0.00942258 19.2007 -0.465874 24.0265 0.460203 28.6822C1.38628 33.3379 3.67214 37.6144 7.02871 40.971C10.3853 44.3276 14.6618 46.6134 19.3175 47.5395C23.9732 48.4656 28.799 47.9903 33.1846 46.1737C37.5701 44.3571 41.3186 41.2809 43.9558 37.334C46.593 33.3871 48.0007 28.7468 48.0007 23.9998C48.0007 17.6344 45.472 11.5297 40.971 7.0287C36.47 2.52767 30.3653 -0.000976562 23.9998 -0.000976562Z" fill="#F7931A"/>
<path id="Vector_2" d="M23.9967 35.1996C23.5893 35.1996 23.1986 35.0387 22.9106 34.7523C22.6225 34.4658 22.4607 34.0773 22.4607 33.6723V14.3262C22.4607 13.9211 22.6225 13.5326 22.9106 13.2462C23.1986 12.9597 23.5893 12.7988 23.9967 12.7988C24.4041 12.7988 24.7948 12.9597 25.0829 13.2462C25.3709 13.5326 25.5328 13.9211 25.5328 14.3262V33.6723C25.5328 34.0773 25.3709 34.4658 25.0829 34.7523C24.7948 35.0387 24.4041 35.1996 23.9967 35.1996ZM17.8525 30.6176C17.4451 30.6176 17.0544 30.4567 16.7664 30.1703C16.4783 29.8839 16.3165 29.4954 16.3165 29.0903V18.9081C16.3165 18.503 16.4783 18.1146 16.7664 17.8281C17.0544 17.5417 17.4451 17.3808 17.8525 17.3808C18.2599 17.3808 18.6506 17.5417 18.9387 17.8281C19.2267 18.1146 19.3886 18.503 19.3886 18.9081V29.0903C19.3886 29.4954 19.2267 29.8839 18.9387 30.1703C18.6506 30.4567 18.2599 30.6176 17.8525 30.6176ZM30.1409 30.6176C29.7335 30.6176 29.3428 30.4567 29.0548 30.1703C28.7667 29.8839 28.6049 29.4954 28.6049 29.0903V18.9081C28.6049 18.503 28.7667 18.1146 29.0548 17.8281C29.3428 17.5417 29.7335 17.3808 30.1409 17.3808C30.5483 17.3808 30.939 17.5417 31.2271 17.8281C31.5151 18.1146 31.677 18.503 31.677 18.9081V29.0903C31.677 29.4954 31.5151 29.8839 31.2271 30.1703C30.939 30.4567 30.5483 30.6176 30.1409 30.6176ZM35.2611 28.0721C34.8537 28.0721 34.463 27.9111 34.175 27.6247C33.8869 27.3383 33.7251 26.9498 33.7251 26.5447V21.4537C33.7251 21.0486 33.8869 20.6601 34.175 20.3737C34.463 20.0873 34.8537 19.9264 35.2611 19.9264C35.6685 19.9264 36.0592 20.0873 36.3473 20.3737C36.6353 20.6601 36.7972 21.0486 36.7972 21.4537V26.5447C36.7972 26.9498 36.6353 27.3383 36.3473 27.6247C36.0592 27.9111 35.6685 28.0721 35.2611 28.0721ZM12.7323 28.0721C12.325 28.0721 11.9343 27.9111 11.6462 27.6247C11.3581 27.3383 11.1963 26.9498 11.1963 26.5447V21.4537C11.1963 21.0486 11.3581 20.6601 11.6462 20.3737C11.9343 20.0873 12.325 19.9264 12.7323 19.9264C13.1397 19.9264 13.5304 20.0873 13.8185 20.3737C14.1066 20.6601 14.2684 21.0486 14.2684 21.4537V26.5447C14.2684 26.9498 14.1066 27.3383 13.8185 27.6247C13.5304 27.9111 13.1397 28.0721 12.7323 28.0721Z" fill="#F7931A"/>
</g>
</svg>
