<svg width="46" height="46" viewBox="0 0 46 46" fill="none" xmlns="http://www.w3.org/2000/svg">
<g id="ipad 1" clip-path="url(#clip0_5412_1076)">
<path id="Vector" d="M34.7084 45.4605H11.0571C9.32983 45.459 7.67376 44.8012 6.45239 43.6317C5.23101 42.4622 4.54412 40.8764 4.54248 39.2224V6.77817C4.54412 5.1242 5.23101 3.53842 6.45239 2.36888C7.67376 1.19935 9.32983 0.541612 11.0571 0.540039H34.7084C36.4335 0.544754 38.0864 1.20388 39.3051 2.37307C40.5238 3.54227 41.209 5.12625 41.2106 6.77817V39.2224C41.209 40.8743 40.5238 42.4583 39.3051 43.6275C38.0864 44.7967 36.4335 45.4558 34.7084 45.4605ZM11.0571 3.51058C10.1526 3.51215 9.28558 3.85692 8.64598 4.46937C8.00638 5.08182 7.64633 5.91203 7.64469 6.77817V39.2224C7.64633 40.0885 8.00638 40.9188 8.64598 41.5312C9.28558 42.1437 10.1526 42.4884 11.0571 42.49H34.7084C35.6107 42.4853 36.4746 42.1391 37.1115 41.527C37.7484 40.9149 38.1068 40.0865 38.1084 39.2224V6.77817C38.1067 5.91203 37.7467 5.08182 37.1071 4.46937C36.4675 3.85692 35.6005 3.51215 34.696 3.51058H11.0571Z" fill="#D83A40"/>
<path id="Vector_2" d="M26.268 40.1141H19.7328C19.3389 40.1141 18.9611 39.9576 18.6826 39.6791C18.404 39.4005 18.2476 39.0227 18.2476 38.6288C18.2476 38.2349 18.404 37.8571 18.6826 37.5786C18.9611 37.3 19.3389 37.1436 19.7328 37.1436H26.268C26.6619 37.1436 27.0397 37.3 27.3183 37.5786C27.5968 37.8571 27.7533 38.2349 27.7533 38.6288C27.7533 39.0227 27.5968 39.4005 27.3183 39.6791C27.0397 39.9576 26.6619 40.1141 26.268 40.1141Z" fill="#D83A40"/>
</g>
<defs>
<clipPath id="clip0_5412_1076">
<rect width="44.9205" height="44.9205" fill="white" transform="translate(0.539551 0.540039)"/>
</clipPath>
</defs>
</svg>
