<svg width="48" height="48" viewBox="0 0 48 48" fill="none" xmlns="http://www.w3.org/2000/svg">
<g id="Library 1" clip-path="url(#clip0_5412_1126)">
<path id="Vector" d="M5.40624 2.68945H7.73192C10.1832 2.68945 12.1926 4.62128 12.3716 7.0692L12.3833 7.42431V40.5683C12.3825 41.7623 11.9389 42.912 11.1411 43.7872C10.3434 44.6625 9.25035 45.1989 8.08077 45.289L7.73192 45.3032H5.40624C4.23292 45.303 3.10296 44.8517 2.24262 44.0395C1.38228 43.2274 0.855053 42.1144 0.766511 40.9234L0.754883 40.5683V7.42431C0.754883 4.92904 2.65264 2.88358 5.05739 2.70129L5.40624 2.68945ZM19.3603 2.68945H21.686C24.1373 2.68945 26.1466 4.62128 26.3257 7.0692L26.3373 7.42431V40.5683C26.3366 41.7623 25.8929 42.912 25.0952 43.7872C24.2974 44.6625 23.2044 45.1989 22.0348 45.289L21.686 45.3032H19.3603C18.187 45.303 17.057 44.8517 16.1967 44.0395C15.3363 43.2274 14.8091 42.1144 14.7206 40.9234L14.709 40.5683V7.42431C14.709 4.92904 16.6067 2.88358 19.0115 2.70129L19.3603 2.68945ZM35.5796 7.42431C37.5332 7.42431 39.3193 8.68142 39.9751 10.6109L40.0844 10.9826L47.0963 38.788C47.3882 39.9449 47.2398 41.1713 46.6809 42.2215C46.1219 43.2717 45.1937 44.068 44.0823 44.4509L43.7474 44.5527L41.4938 45.1398C40.3626 45.4339 39.1641 45.2847 38.1359 44.7217C37.1077 44.1587 36.3248 43.223 35.9424 42.1L35.8331 41.7331L28.8188 13.9276C28.5272 12.7702 28.6762 11.5432 29.2361 10.4929C29.796 9.44266 30.7253 8.64671 31.8376 8.26475L32.1701 8.16295L34.4214 7.57583C34.8075 7.47403 35.1982 7.42431 35.5796 7.42431ZM7.73192 6.2406H5.40624C5.1342 6.24097 4.87086 6.33822 4.66187 6.5155C4.45288 6.69279 4.31142 6.93892 4.26201 7.21124L4.2434 7.42431V40.5683C4.2434 41.146 4.65504 41.6337 5.19693 41.7331L5.40624 41.752H7.73192C8.30171 41.752 8.77847 41.3306 8.87615 40.7814L8.89476 40.5683V7.42431C8.89439 7.14739 8.79885 6.87932 8.6247 6.66658C8.45054 6.45384 8.20875 6.30984 7.94123 6.25954L7.73192 6.2406ZM21.686 6.2406H19.3603C19.0883 6.24097 18.8249 6.33822 18.6159 6.5155C18.4069 6.69279 18.2655 6.93892 18.2161 7.21124L18.1975 7.42431V40.5683C18.1975 41.146 18.6091 41.6337 19.151 41.7331L19.3603 41.752H21.686C22.2558 41.752 22.7325 41.3306 22.8302 40.7814L22.8488 40.5683V7.42431C22.8485 7.14739 22.7529 6.87932 22.5788 6.66658C22.4046 6.45384 22.1628 6.30984 21.8953 6.25954L21.686 6.2406ZM35.5819 10.9755L35.4354 10.9849L35.2889 11.0157L33.0376 11.6005C32.7769 11.6671 32.547 11.824 32.3874 12.0443C32.2279 12.2646 32.1486 12.5346 32.1632 12.8078L32.1981 13.0446L39.2123 40.85C39.2766 41.1037 39.4218 41.3285 39.6251 41.4891C39.8284 41.6498 40.0783 41.7372 40.3356 41.7378L40.4821 41.7307L40.6263 41.7023L42.8822 41.1105C43.1454 41.0414 43.3765 40.8807 43.5354 40.6562C43.6943 40.4318 43.771 40.1578 43.752 39.8818L43.7171 39.6734L36.7052 11.8632C36.6405 11.6098 36.4952 11.3853 36.292 11.2247C36.0889 11.0641 35.8392 10.9764 35.5819 10.9755Z" fill="#D24F5B"/>
</g>
<defs>
<clipPath id="clip0_5412_1126">
<rect width="46.4877" height="46.4877" fill="white" transform="translate(0.756348 0.755859)"/>
</clipPath>
</defs>
</svg>
