<svg width="48" height="45" viewBox="0 0 48 45" fill="none" xmlns="http://www.w3.org/2000/svg">
<g id="s&#195;&#161;ch t&#198;&#176;&#198;&#161;ng t&#195;&#161;c">
<g id="Group">
<path id="Vector" d="M23.8445 44.7201C23.179 44.7201 22.5136 44.5648 21.9591 44.2543C17.8113 41.9919 10.5137 39.5963 5.94448 38.9974L5.30123 38.9087C2.39554 38.5538 0 35.8256 0 32.8755V6.081C0 4.32871 0.687608 2.73169 1.95192 1.57828C3.21623 0.424876 4.85761 -0.129646 6.58772 0.0256204C11.4675 0.402696 18.8316 2.84259 23.0016 5.45994L23.5339 5.77047C23.6892 5.85919 24.0219 5.8592 24.155 5.79265L24.5099 5.57084C28.6799 2.9535 36.0439 0.469238 40.9459 0.0478012H41.2121C42.8313 -0.107465 44.4949 0.469239 45.737 1.62265C47.0013 2.77605 47.6889 4.37307 47.6889 6.12537V32.8977C47.6889 35.8699 45.2934 38.576 42.3655 38.9309L41.6335 39.0196C37.0643 39.6185 29.7446 42.0362 25.6855 44.2765C25.1531 44.587 24.5099 44.7201 23.8445 44.7201ZM6.05538 3.33057C5.34559 3.33057 4.70235 3.57456 4.19219 4.04036C3.63767 4.55052 3.32713 5.28249 3.32713 6.081V32.8755C3.32713 34.1842 4.45836 35.4485 5.72267 35.6259L6.3881 35.7147C11.3788 36.3801 19.0312 38.8865 23.4674 41.3042C23.667 41.393 23.9554 41.4151 24.0663 41.3708C28.5024 38.9087 36.1992 36.3801 41.2121 35.7147L41.9662 35.6259C43.2306 35.4707 44.3618 34.1842 44.3618 32.8755V6.10319C44.3618 5.28249 44.0513 4.5727 43.4967 4.04036C42.92 3.5302 42.1881 3.28621 41.3674 3.33057C41.323 3.33057 41.1456 3.33057 41.1012 3.33057C36.8646 3.70765 30.0329 5.99228 26.3065 8.32127L25.9516 8.56526C24.7317 9.31942 23.0016 9.31941 21.826 8.58745L21.2937 8.27691C17.5007 5.94792 10.669 3.68547 6.32155 3.33057C6.23283 3.33057 6.14411 3.33057 6.05538 3.33057Z" fill="#158FFF"/>
</g>
<g id="Group_2">
<g id="Group_3">
<g id="Group_4">
<g id="Vector_2">
<mask id="path-2-outside-1_5412_1157" maskUnits="userSpaceOnUse" x="14.3066" y="15.1211" width="24" height="20" fill="black">
<rect fill="white" x="14.3066" y="15.1211" width="24" height="20"/>
<path d="M36.1285 21.5322L31.7746 16.7501C30.94 15.9132 29.4906 15.9074 28.641 16.7571C28.3666 17.0314 28.1791 17.3613 28.0819 17.7132C27.2368 17.065 25.9472 17.1356 25.1681 17.9147C24.8938 18.189 24.7062 18.5189 24.6067 18.8697C23.7639 18.2214 22.4732 18.2955 21.6953 19.0723C21.4255 19.342 21.2403 19.665 21.1396 20.0065L19.0883 17.9551C18.2259 17.0939 16.8251 17.0915 15.9534 17.9621C15.091 18.8234 15.091 20.2264 15.9534 21.0888L23.8345 28.9699L19.1624 29.7038C17.8982 29.8845 16.9455 30.9819 16.9455 32.2587C16.9455 33.2161 17.7246 33.9951 18.682 33.9951H29.5972C31.2965 33.9951 32.8952 33.333 34.1015 32.1291L35.9212 30.3082C37.1228 29.1077 37.7838 27.5102 37.7838 25.8119C37.7838 24.226 37.1958 22.7061 36.1285 21.5322ZM35.1016 29.4908L33.2819 31.3118C32.2967 32.2957 30.9874 32.8375 29.5972 32.8375H18.682C18.3636 32.8375 18.1031 32.5782 18.1031 32.2587C18.1031 31.5548 18.6287 30.9494 19.3325 30.8475L25.138 29.9353C25.3533 29.9017 25.5304 29.7501 25.5988 29.5429C25.6659 29.3368 25.6115 29.1088 25.4575 28.9548L16.7719 20.2693C16.3621 19.8583 16.3621 19.1903 16.7788 18.7725C16.9849 18.5676 17.2546 18.4645 17.5244 18.4645C17.7941 18.4645 18.0638 18.5676 18.2699 18.7736L21.6686 22.1724C21.6767 22.1817 21.6871 22.1909 21.6964 22.2002L24.0626 24.5652C24.2883 24.7909 24.6553 24.7909 24.881 24.5652C25.1068 24.3395 25.1068 23.9725 24.881 23.7467L22.4952 21.3609C22.1051 20.9488 22.112 20.2947 22.5218 19.8838C22.9201 19.4879 23.6123 19.4855 24.0105 19.8838L25.1485 21.0229C25.1554 21.0298 25.1612 21.0368 25.1682 21.0426L26.3767 22.25C26.6025 22.4757 26.9695 22.4757 27.1952 22.25C27.4209 22.0243 27.4209 21.6573 27.1952 21.4315L25.9727 20.2102C25.578 19.7981 25.5826 19.1394 25.9947 18.7262C26.3918 18.3303 27.0852 18.3279 27.4834 18.7262L28.692 19.9393C28.6931 19.9405 28.6931 19.9417 28.6943 19.9417L28.6955 19.9428C28.7049 19.9475 28.7025 19.9463 28.7001 19.9452C28.7001 19.9452 28.7001 19.9463 28.7012 19.9463C28.7024 19.9474 28.7024 19.9474 28.7024 19.9474C28.7035 19.9486 28.7035 19.9486 28.7035 19.9486H28.7046C28.7058 19.9486 28.7058 19.9486 28.7058 19.9486C28.935 20.1616 29.2916 20.1558 29.5115 19.9335C29.7361 19.7078 29.7361 19.342 29.5103 19.1163L29.4409 19.0468C29.0496 18.6347 29.0554 17.9795 29.4663 17.5685C29.8646 17.1726 30.5753 17.19 30.9365 17.5488L35.2706 22.3124C36.1446 23.2733 36.625 24.5154 36.625 25.8131C36.6251 27.2011 36.0833 28.508 35.1016 29.4908Z"/>
</mask>
<path d="M36.1285 21.5322L31.7746 16.7501C30.94 15.9132 29.4906 15.9074 28.641 16.7571C28.3666 17.0314 28.1791 17.3613 28.0819 17.7132C27.2368 17.065 25.9472 17.1356 25.1681 17.9147C24.8938 18.189 24.7062 18.5189 24.6067 18.8697C23.7639 18.2214 22.4732 18.2955 21.6953 19.0723C21.4255 19.342 21.2403 19.665 21.1396 20.0065L19.0883 17.9551C18.2259 17.0939 16.8251 17.0915 15.9534 17.9621C15.091 18.8234 15.091 20.2264 15.9534 21.0888L23.8345 28.9699L19.1624 29.7038C17.8982 29.8845 16.9455 30.9819 16.9455 32.2587C16.9455 33.2161 17.7246 33.9951 18.682 33.9951H29.5972C31.2965 33.9951 32.8952 33.333 34.1015 32.1291L35.9212 30.3082C37.1228 29.1077 37.7838 27.5102 37.7838 25.8119C37.7838 24.226 37.1958 22.7061 36.1285 21.5322ZM35.1016 29.4908L33.2819 31.3118C32.2967 32.2957 30.9874 32.8375 29.5972 32.8375H18.682C18.3636 32.8375 18.1031 32.5782 18.1031 32.2587C18.1031 31.5548 18.6287 30.9494 19.3325 30.8475L25.138 29.9353C25.3533 29.9017 25.5304 29.7501 25.5988 29.5429C25.6659 29.3368 25.6115 29.1088 25.4575 28.9548L16.7719 20.2693C16.3621 19.8583 16.3621 19.1903 16.7788 18.7725C16.9849 18.5676 17.2546 18.4645 17.5244 18.4645C17.7941 18.4645 18.0638 18.5676 18.2699 18.7736L21.6686 22.1724C21.6767 22.1817 21.6871 22.1909 21.6964 22.2002L24.0626 24.5652C24.2883 24.7909 24.6553 24.7909 24.881 24.5652C25.1068 24.3395 25.1068 23.9725 24.881 23.7467L22.4952 21.3609C22.1051 20.9488 22.112 20.2947 22.5218 19.8838C22.9201 19.4879 23.6123 19.4855 24.0105 19.8838L25.1485 21.0229C25.1554 21.0298 25.1612 21.0368 25.1682 21.0426L26.3767 22.25C26.6025 22.4757 26.9695 22.4757 27.1952 22.25C27.4209 22.0243 27.4209 21.6573 27.1952 21.4315L25.9727 20.2102C25.578 19.7981 25.5826 19.1394 25.9947 18.7262C26.3918 18.3303 27.0852 18.3279 27.4834 18.7262L28.692 19.9393C28.6931 19.9405 28.6931 19.9417 28.6943 19.9417L28.6955 19.9428C28.7049 19.9475 28.7025 19.9463 28.7001 19.9452C28.7001 19.9452 28.7001 19.9463 28.7012 19.9463C28.7024 19.9474 28.7024 19.9474 28.7024 19.9474C28.7035 19.9486 28.7035 19.9486 28.7035 19.9486H28.7046C28.7058 19.9486 28.7058 19.9486 28.7058 19.9486C28.935 20.1616 29.2916 20.1558 29.5115 19.9335C29.7361 19.7078 29.7361 19.342 29.5103 19.1163L29.4409 19.0468C29.0496 18.6347 29.0554 17.9795 29.4663 17.5685C29.8646 17.1726 30.5753 17.19 30.9365 17.5488L35.2706 22.3124C36.1446 23.2733 36.625 24.5154 36.625 25.8131C36.6251 27.2011 36.0833 28.508 35.1016 29.4908Z" fill="#158FFF"/>
<path d="M36.1285 21.5322L36.2394 21.4313L36.2394 21.4313L36.1285 21.5322ZM31.7746 16.7501L31.8857 16.649L31.8809 16.6442L31.7746 16.7501ZM28.641 16.7571L28.7471 16.8631L28.7471 16.8631L28.641 16.7571ZM28.0819 17.7132L27.9906 17.8323L28.1672 17.9677L28.2264 17.7532L28.0819 17.7132ZM24.6067 18.8697L24.5152 18.9886L24.6906 19.1235L24.751 18.9107L24.6067 18.8697ZM21.6953 19.0723L21.5893 18.9661L21.5892 18.9662L21.6953 19.0723ZM21.1396 20.0065L21.0335 20.1125L21.2121 20.2911L21.2835 20.0489L21.1396 20.0065ZM19.0883 17.9551L19.1944 17.8491L19.1943 17.849L19.0883 17.9551ZM15.9534 17.9621L16.0594 18.0682L16.0594 18.0682L15.9534 17.9621ZM15.9534 21.0888L16.0595 20.9827L15.9534 21.0888ZM23.8345 28.9699L23.8578 29.118L24.1491 29.0723L23.9406 28.8638L23.8345 28.9699ZM19.1624 29.7038L19.1836 29.8523L19.1856 29.852L19.1624 29.7038ZM34.1015 32.1291L34.2074 32.2352L34.2076 32.2351L34.1015 32.1291ZM35.9212 30.3082L35.8152 30.202L35.8151 30.2021L35.9212 30.3082ZM35.1016 29.4908L35.2077 29.5969L35.2078 29.5968L35.1016 29.4908ZM33.2819 31.3118L33.3879 31.4179L33.388 31.4178L33.2819 31.3118ZM19.3325 30.8475L19.354 30.996L19.3558 30.9957L19.3325 30.8475ZM25.138 29.9353L25.1149 29.7871L25.1147 29.7871L25.138 29.9353ZM25.5988 29.5429L25.7412 29.5898L25.7414 29.5893L25.5988 29.5429ZM25.4575 28.9548L25.3515 29.0609L25.3515 29.0609L25.4575 28.9548ZM16.7719 20.2693L16.6657 20.3752L16.6658 20.3753L16.7719 20.2693ZM16.7788 18.7725L16.6731 18.6661L16.6726 18.6665L16.7788 18.7725ZM18.2699 18.7736L18.376 18.6675L18.3759 18.6675L18.2699 18.7736ZM21.6686 22.1724L21.782 22.0736L21.7747 22.0663L21.6686 22.1724ZM21.6964 22.2002L21.5903 22.3062L21.5904 22.3063L21.6964 22.2002ZM24.0626 24.5652L24.1686 24.4591L24.1686 24.4591L24.0626 24.5652ZM24.881 23.7467L24.9871 23.6407L24.881 23.7467ZM22.4952 21.3609L22.3862 21.464L22.3891 21.4669L22.4952 21.3609ZM22.5218 19.8838L22.4161 19.7774L22.4156 19.7779L22.5218 19.8838ZM24.0105 19.8838L24.1166 19.7778L24.1166 19.7777L24.0105 19.8838ZM25.1485 21.0229L25.0424 21.1289L25.0424 21.1289L25.1485 21.0229ZM25.1682 21.0426L25.2746 20.936L25.2644 20.9275L25.1682 21.0426ZM26.3767 22.25L26.4828 22.1439L26.4828 22.1439L26.3767 22.25ZM27.1952 21.4315L27.3013 21.3255L27.3012 21.3254L27.1952 21.4315ZM25.9727 20.2102L25.8644 20.314L25.8667 20.3163L25.9727 20.2102ZM25.9947 18.7262L25.8888 18.62L25.8885 18.6203L25.9947 18.7262ZM27.4834 18.7262L27.5897 18.6203L27.5895 18.6201L27.4834 18.7262ZM28.692 19.9393L28.5857 20.0452L28.5859 20.0454L28.692 19.9393ZM28.6943 19.9417L28.8004 19.8356L28.7565 19.7917H28.6943V19.9417ZM28.6955 19.9428L28.5894 20.0488L28.6065 20.066L28.6281 20.0768L28.6955 19.9428ZM28.7001 19.9452L28.766 19.8104L28.5501 19.7049L28.5501 19.9451L28.7001 19.9452ZM28.7012 19.9463L28.8073 19.8402L28.7633 19.7963H28.7012V19.9463ZM28.7035 19.9486V19.7986H28.6925L28.6817 19.8002L28.7035 19.9486ZM28.7058 19.9486V19.7986H28.324L28.6037 20.0585L28.7058 19.9486ZM29.5115 19.9335L29.4051 19.8277L29.4049 19.828L29.5115 19.9335ZM29.4409 19.0468L29.3321 19.1501L29.3348 19.1529L29.4409 19.0468ZM29.4663 17.5685L29.3606 17.4621L29.3603 17.4625L29.4663 17.5685ZM30.9365 17.5488L31.0476 17.4477L31.0422 17.4424L30.9365 17.5488ZM35.2706 22.3124L35.3816 22.2115L35.3816 22.2115L35.2706 22.3124ZM36.625 25.8131H36.475V25.8131L36.625 25.8131ZM36.2394 21.4313L31.8856 16.6491L31.6637 16.8511L36.0175 21.6332L36.2394 21.4313ZM31.8809 16.6442C30.9875 15.7483 29.443 15.7428 28.5349 16.651L28.7471 16.8631C29.5383 16.0719 30.8925 16.078 31.6684 16.856L31.8809 16.6442ZM28.5349 16.651C28.242 16.9439 28.0413 17.2967 27.9373 17.6733L28.2264 17.7532C28.3169 17.426 28.4913 17.1189 28.7471 16.8631L28.5349 16.651ZM28.1732 17.5942C27.2686 16.9003 25.8945 16.9762 25.0621 17.8086L25.2742 18.0207C25.9999 17.2951 27.205 17.2296 27.9906 17.8323L28.1732 17.5942ZM25.0621 17.8086C24.7691 18.1015 24.5687 18.454 24.4624 18.8287L24.751 18.9107C24.8437 18.5839 25.0184 18.2765 25.2742 18.0207L25.0621 17.8086ZM24.6981 18.7508C23.7954 18.0564 22.4203 18.1364 21.5893 18.9661L21.8013 19.1784C22.5261 18.4547 23.7324 18.3864 24.5152 18.9886L24.6981 18.7508ZM21.5892 18.9662C21.3012 19.2542 21.1033 19.5992 20.9957 19.964L21.2835 20.0489C21.3773 19.7307 21.5498 19.4298 21.8013 19.1783L21.5892 18.9662ZM21.2457 19.9004L19.1944 17.8491L18.9822 18.0612L21.0335 20.1125L21.2457 19.9004ZM19.1943 17.849C18.2731 16.9291 16.7775 16.9271 15.8475 17.856L16.0594 18.0682C16.8728 17.256 18.1787 17.2587 18.9823 18.0613L19.1943 17.849ZM15.8475 17.856C14.9263 18.7759 14.9264 20.2739 15.8474 21.1949L16.0595 20.9827C15.2556 20.1789 15.2557 18.8709 16.0594 18.0682L15.8475 17.856ZM15.8474 21.1949L23.7284 29.0759L23.9406 28.8638L16.0595 20.9827L15.8474 21.1949ZM23.8112 28.8217L19.1391 29.5556L19.1856 29.852L23.8578 29.118L23.8112 28.8217ZM19.1411 29.5553C17.8032 29.7465 16.7955 30.9072 16.7955 32.2587H17.0955C17.0955 31.0566 17.9933 30.0224 19.1836 29.8523L19.1411 29.5553ZM16.7955 32.2587C16.7955 33.2989 17.6418 34.1451 18.682 34.1451V33.8451C17.8074 33.8451 17.0955 33.1332 17.0955 32.2587H16.7955ZM18.682 34.1451H29.5972V33.8451H18.682V34.1451ZM29.5972 34.1451C31.3364 34.1451 32.9732 33.4671 34.2074 32.2352L33.9955 32.0229C32.8173 33.1988 31.2567 33.8451 29.5972 33.8451V34.1451ZM34.2076 32.2351L36.0273 30.4142L35.8151 30.2021L33.9954 32.023L34.2076 32.2351ZM36.0273 30.4143C37.2571 29.1856 37.9338 27.5499 37.9338 25.8119H37.6338C37.6338 27.4704 36.9886 29.0298 35.8152 30.202L36.0273 30.4143ZM37.9338 25.8119C37.9338 24.1886 37.3318 22.6328 36.2394 21.4313L36.0175 21.6332C37.0597 22.7794 37.6338 24.2633 37.6338 25.8119H37.9338ZM34.9955 29.3848L33.1758 31.2057L33.388 31.4178L35.2077 29.5969L34.9955 29.3848ZM33.1759 31.2056C32.2188 32.1615 30.9477 32.6875 29.5972 32.6875V32.9875C31.0272 32.9875 32.3746 32.4299 33.3879 31.4179L33.1759 31.2056ZM29.5972 32.6875H18.682V32.9875H29.5972V32.6875ZM18.682 32.6875C18.4463 32.6875 18.2531 32.4951 18.2531 32.2587H17.9531C17.9531 32.6612 18.281 32.9875 18.682 32.9875V32.6875ZM18.2531 32.2587C18.2531 31.63 18.7233 31.0873 19.354 30.996L19.3111 30.6991C18.5341 30.8115 17.9531 31.4796 17.9531 32.2587H18.2531ZM19.3558 30.9957L25.1613 30.0835L25.1147 29.7871L19.3093 30.6994L19.3558 30.9957ZM25.1611 30.0835C25.4327 30.0412 25.6555 29.85 25.7412 29.5898L25.4563 29.4959C25.4054 29.6503 25.274 29.7623 25.1149 29.7871L25.1611 30.0835ZM25.7414 29.5893C25.826 29.3296 25.7575 29.0426 25.5636 28.8487L25.3515 29.0609C25.4655 29.1749 25.5058 29.344 25.4561 29.4964L25.7414 29.5893ZM25.5636 28.8488L16.878 20.1632L16.6658 20.3753L25.3515 29.0609L25.5636 28.8488ZM16.8781 20.1633C16.5273 19.8116 16.5261 19.2384 16.8851 18.8784L16.6726 18.6665C16.1981 19.1423 16.1969 19.9051 16.6657 20.3752L16.8781 20.1633ZM16.8846 18.8788C17.0615 18.7029 17.2928 18.6145 17.5244 18.6145V18.3145C17.2164 18.3145 16.9082 18.4322 16.6731 18.6661L16.8846 18.8788ZM17.5244 18.6145C17.7559 18.6145 17.9869 18.7028 18.1638 18.8797L18.3759 18.6675C18.1407 18.4323 17.8324 18.3145 17.5244 18.3145V18.6145ZM18.1638 18.8797L21.5626 22.2785L21.7747 22.0663L18.376 18.6675L18.1638 18.8797ZM21.5555 22.2709C21.5639 22.2805 21.5723 22.2888 21.5777 22.294C21.5849 22.301 21.5867 22.3026 21.5903 22.3062L21.8025 22.0941C21.7991 22.0907 21.7959 22.0876 21.7932 22.0851C21.7902 22.0822 21.7886 22.0806 21.7864 22.0785C21.7823 22.0746 21.7814 22.0735 21.7817 22.0738L21.5555 22.2709ZM21.5904 22.3063L23.9565 24.6713L24.1686 24.4591L21.8025 22.0941L21.5904 22.3063ZM23.9565 24.6713C24.2408 24.9556 24.7028 24.9556 24.9871 24.6713L24.775 24.4591C24.6078 24.6263 24.3358 24.6263 24.1686 24.4591L23.9565 24.6713ZM24.9871 24.6713C25.2714 24.3869 25.2714 23.925 24.9871 23.6407L24.775 23.8528C24.9421 24.02 24.9421 24.292 24.775 24.4591L24.9871 24.6713ZM24.9871 23.6407L22.6012 21.2548L22.3891 21.4669L24.775 23.8528L24.9871 23.6407ZM22.6041 21.2578C22.2703 20.9051 22.275 20.3437 22.628 19.9897L22.4156 19.7779C21.949 20.2457 21.9398 20.9924 22.3862 21.464L22.6041 21.2578ZM22.6276 19.9902C22.9677 19.652 23.5652 19.6506 23.9045 19.9898L24.1166 19.7777C23.6594 19.3205 22.8724 19.3237 22.4161 19.7774L22.6276 19.9902ZM23.9044 19.9898L25.0424 21.1289L25.2546 20.9169L24.1166 19.7778L23.9044 19.9898ZM25.0424 21.1289C25.0428 21.1293 25.0434 21.1299 25.0447 21.1313C25.0454 21.1321 25.0481 21.135 25.05 21.1369C25.0543 21.1414 25.062 21.1493 25.072 21.1577L25.2644 20.9275C25.2674 20.93 25.2688 20.9316 25.2667 20.9294C25.2653 20.928 25.2649 20.9275 25.2624 20.9249C25.2604 20.9228 25.2577 20.9199 25.2546 20.9168L25.0424 21.1289ZM25.0622 21.1487L26.2707 22.3561L26.4828 22.1439L25.2742 20.9365L25.0622 21.1487ZM26.2707 22.3561C26.555 22.6404 27.0169 22.6404 27.3013 22.3561L27.0891 22.1439C26.922 22.3111 26.65 22.3111 26.4828 22.1439L26.2707 22.3561ZM27.3013 22.3561C27.5856 22.0717 27.5856 21.6098 27.3013 21.3255L27.0891 21.5376C27.2563 21.7048 27.2563 21.9768 27.0891 22.1439L27.3013 22.3561ZM27.3012 21.3254L26.0788 20.1041L25.8667 20.3163L27.0892 21.5376L27.3012 21.3254ZM26.0811 20.1065C25.7431 19.7537 25.7459 19.1881 26.1009 18.8321L25.8885 18.6203C25.4194 19.0908 25.4128 19.8425 25.8644 20.314L26.0811 20.1065ZM26.1006 18.8324C26.4394 18.4946 27.038 18.4929 27.3774 18.8322L27.5895 18.6201C27.1324 18.163 26.3441 18.166 25.8888 18.62L26.1006 18.8324ZM27.3772 18.832L28.5857 20.0452L28.7983 19.8335L27.5897 18.6203L27.3772 18.832ZM28.5859 20.0454C28.5768 20.0362 28.5707 20.0277 28.5673 20.0226C28.5659 20.0203 28.5647 20.0185 28.5649 20.0187C28.5665 20.0213 28.5633 20.0161 28.5649 20.0187C28.5649 20.0187 28.5649 20.0188 28.5649 20.0188C28.5649 20.0188 28.565 20.0189 28.5651 20.019C28.5652 20.0192 28.5654 20.0195 28.5656 20.0199C28.5661 20.0207 28.5669 20.022 28.568 20.0237C28.5713 20.0287 28.584 20.0479 28.6077 20.0644C28.6354 20.0838 28.6663 20.0917 28.6943 20.0917V19.7917C28.7217 19.7917 28.7522 19.7994 28.7795 19.8185C28.8028 19.8348 28.8153 19.8537 28.8182 19.8582C28.82 19.8608 28.8215 19.8633 28.821 19.8625C28.821 19.8625 28.8197 19.8603 28.818 19.8578C28.8143 19.8521 28.8078 19.843 28.7981 19.8333L28.5859 20.0454ZM28.5882 20.0477L28.5894 20.0488L28.8016 19.8368L28.8004 19.8356L28.5882 20.0477ZM28.6281 20.0768C28.6329 20.0792 28.6347 20.0802 28.6351 20.0804C28.6351 20.0804 28.6351 20.0804 28.6351 20.0803C28.635 20.0803 28.635 20.0803 28.6349 20.0803C28.6349 20.0803 28.6349 20.0802 28.6348 20.0802C28.6348 20.0802 28.6345 20.0801 28.6343 20.0799C28.6341 20.0799 28.6336 20.0796 28.6333 20.0794C28.6321 20.0788 28.561 19.8956 28.731 19.799C28.7487 19.8036 28.7665 19.8107 28.7674 19.8111C28.7677 19.8112 28.7681 19.8115 28.7683 19.8115C28.7685 19.8117 28.7687 19.8117 28.7687 19.8118C28.7688 19.8118 28.7689 19.8118 28.7689 19.8118C28.769 19.8119 28.7692 19.812 28.769 19.8119C28.7689 19.8118 28.7686 19.8117 28.7683 19.8116C28.7678 19.8113 28.7669 19.8109 28.766 19.8104L28.6342 20.0799C28.6345 20.08 28.6348 20.0802 28.6351 20.0803C28.6352 20.0804 28.6353 20.0805 28.6353 20.0805C28.6354 20.0805 28.6354 20.0805 28.6354 20.0805C28.6354 20.0805 28.6354 20.0805 28.6354 20.0805C28.6355 20.0805 28.6355 20.0805 28.6355 20.0805C28.6355 20.0806 28.6356 20.0806 28.6356 20.0806C28.6356 20.0806 28.6357 20.0807 28.6358 20.0807C28.6358 20.0807 28.636 20.0808 28.6362 20.0809C28.6364 20.081 28.6368 20.0812 28.6371 20.0813C28.638 20.0817 28.6558 20.0888 28.6735 20.0934C28.8435 19.9968 28.7724 19.8136 28.7712 19.813C28.7709 19.8129 28.7704 19.8126 28.7702 19.8125C28.77 19.8124 28.7697 19.8123 28.7697 19.8123C28.7696 19.8122 28.7696 19.8122 28.7696 19.8122C28.7695 19.8121 28.7694 19.8121 28.7694 19.8121C28.7694 19.8121 28.7694 19.8121 28.7693 19.8121C28.7693 19.8121 28.7693 19.8121 28.7693 19.812C28.7691 19.812 28.7675 19.8111 28.7629 19.8088L28.6281 20.0768ZM28.7001 19.9452C28.5501 19.9451 28.5501 19.9452 28.5501 19.9453C28.5501 19.9453 28.5501 19.9454 28.5501 19.9454C28.5501 19.9455 28.5501 19.9456 28.5501 19.9457C28.5501 19.9459 28.5501 19.9461 28.5501 19.9463C28.5501 19.9467 28.5501 19.9471 28.5501 19.9475C28.5501 19.9484 28.5501 19.9492 28.5502 19.9501C28.5502 19.9519 28.5503 19.9538 28.5505 19.9559C28.5507 19.9599 28.5512 19.9646 28.5521 19.97C28.5538 19.9799 28.5574 19.9954 28.5661 20.0128C28.575 20.0307 28.5908 20.0532 28.6174 20.0709C28.6448 20.0892 28.6747 20.0963 28.7012 20.0963V19.7963C28.7272 19.7963 28.7566 19.8032 28.7838 19.8213C28.81 19.8388 28.8256 19.861 28.8344 19.8786C28.8429 19.8957 28.8464 19.911 28.8481 19.9207C28.8489 19.9259 28.8494 19.9306 28.8497 19.9345C28.8498 19.9365 28.8499 19.9384 28.85 19.9402C28.85 19.9411 28.85 19.9419 28.8501 19.9428C28.8501 19.9432 28.8501 19.9436 28.8501 19.944C28.8501 19.9442 28.8501 19.9444 28.8501 19.9446C28.8501 19.9447 28.8501 19.9448 28.8501 19.9449C28.8501 19.9449 28.8501 19.945 28.8501 19.945C28.8501 19.9451 28.8501 19.9452 28.7001 19.9452ZM28.5952 20.0524C28.596 20.0532 28.5957 20.0529 28.5961 20.0534C28.5963 20.0535 28.5962 20.0534 28.5963 20.0535C28.5963 20.0535 28.5963 20.0535 28.5963 20.0535C28.5964 20.0536 28.5962 20.0534 28.5963 20.0535C28.5963 20.0535 28.5963 20.0535 28.5963 20.0535C28.5963 20.0535 28.5963 20.0535 28.5963 20.0535C28.5963 20.0535 28.5963 20.0535 28.5963 20.0535C28.5963 20.0535 28.5963 20.0535 28.5963 20.0535C28.5963 20.0535 28.5963 20.0535 28.5963 20.0535C28.5963 20.0535 28.5963 20.0535 28.5963 20.0535C28.5963 20.0535 28.5963 20.0535 28.5963 20.0535C28.5963 20.0535 28.5963 20.0535 28.5963 20.0535C28.8084 19.8414 28.8084 19.8414 28.7024 19.9474C28.5963 20.0535 28.5963 20.0535 28.8084 19.8414C28.8084 19.8414 28.8084 19.8414 28.8084 19.8414C28.8084 19.8414 28.8084 19.8414 28.8084 19.8414C28.8084 19.8414 28.8084 19.8414 28.8084 19.8414C28.8084 19.8414 28.8084 19.8414 28.8084 19.8414C28.8084 19.8414 28.8084 19.8414 28.8084 19.8414V19.8414C28.8084 19.8414 28.8084 19.8414 28.8084 19.8414C28.8084 19.8414 28.8084 19.8414 28.8084 19.8414C28.8084 19.8414 28.8084 19.8414 28.8084 19.8414C28.8084 19.8414 28.8084 19.8414 28.8084 19.8414C28.8084 19.8414 28.8084 19.8414 28.8084 19.8414V19.8414C28.8084 19.8414 28.8084 19.8414 28.8084 19.8414C28.8084 19.8414 28.8084 19.8414 28.8084 19.8414C28.8084 19.8414 28.8084 19.8414 28.8084 19.8414C28.8084 19.8414 28.8084 19.8414 28.8084 19.8413C28.8084 19.8413 28.8084 19.8413 28.8084 19.8413C28.8073 19.8403 28.8093 19.8423 28.8083 19.8412C28.8081 19.841 28.8082 19.8412 28.8079 19.8409C28.8076 19.8405 28.8078 19.8407 28.8073 19.8402L28.5952 20.0524ZM28.5963 20.0535C28.5969 20.0541 28.5972 20.0544 28.5974 20.0546C28.5975 20.0547 28.5977 20.0549 28.5979 20.0551C28.5979 20.0551 28.5982 20.0554 28.5985 20.0557C28.5986 20.0558 28.5991 20.0563 28.5997 20.0569C28.5999 20.0571 28.6009 20.058 28.6022 20.0592C28.6026 20.0595 28.6044 20.0612 28.6069 20.0633C28.6078 20.0641 28.6112 20.0669 28.6158 20.0703C28.6177 20.0716 28.6234 20.0757 28.6312 20.08C28.6374 20.0832 28.6486 20.0882 28.6536 20.09C28.689 20.0979 28.7253 20.097 28.7035 19.9486C28.6817 19.8002 28.718 19.7993 28.7534 19.8071C28.7584 19.809 28.7696 19.8139 28.7758 19.8171C28.7836 19.8214 28.7893 19.8255 28.7912 19.8269C28.7958 19.8302 28.7992 19.8331 28.8001 19.8338C28.8026 19.8359 28.8044 19.8376 28.8048 19.838C28.8061 19.8391 28.8071 19.8401 28.8073 19.8403C28.8079 19.8409 28.8084 19.8413 28.8085 19.8414C28.8088 19.8417 28.809 19.842 28.8091 19.842C28.8092 19.8422 28.8093 19.8423 28.8093 19.8422C28.8092 19.8421 28.809 19.8419 28.8084 19.8414L28.5963 20.0535ZM28.7035 20.0986H28.7046V19.7986H28.7035V20.0986ZM28.7046 20.0986C28.7046 20.0986 28.7046 20.0986 28.7046 20.0986C28.7046 20.0986 28.7046 20.0986 28.7047 20.0986C28.7047 20.0986 28.7047 20.0986 28.7047 20.0986C28.7047 20.0986 28.7047 20.0986 28.7047 20.0986C28.7047 20.0986 28.7047 20.0986 28.7047 20.0986C28.7047 20.0986 28.7047 20.0986 28.7047 20.0986C28.7047 20.0986 28.7047 20.0986 28.7047 20.0986C28.7047 20.0986 28.7047 20.0986 28.7047 20.0986C28.7047 20.0986 28.7047 20.0986 28.7047 20.0986C28.7047 20.0986 28.7047 20.0986 28.7047 20.0986C28.7047 20.0986 28.7047 20.0986 28.7047 20.0986C28.7047 20.0986 28.7047 20.0986 28.7047 20.0986C28.7047 20.0986 28.7047 20.0986 28.7047 20.0986C28.7047 20.0986 28.7047 20.0986 28.7047 20.0986C28.7047 20.0986 28.7047 20.0986 28.7047 20.0986C28.7047 20.0986 28.7047 20.0986 28.7047 20.0986C28.7047 20.0986 28.7047 20.0986 28.7047 20.0986C28.7047 20.0986 28.7048 20.0986 28.7048 20.0986C28.7048 20.0986 28.7048 20.0986 28.7048 20.0986C28.7048 20.0986 28.7048 20.0986 28.7048 20.0986C28.7048 20.0986 28.7048 20.0986 28.7048 20.0986C28.7048 20.0986 28.7048 20.0986 28.7048 20.0986C28.7048 20.0986 28.7048 20.0986 28.7048 20.0986C28.7048 20.0986 28.7048 20.0986 28.7048 20.0986C28.7048 20.0986 28.7048 20.0986 28.7048 20.0986C28.7048 20.0986 28.7048 20.0986 28.7048 20.0986C28.7048 20.0986 28.7048 20.0986 28.7048 20.0986C28.7048 20.0986 28.7048 20.0986 28.7048 20.0986C28.7048 20.0986 28.7048 20.0986 28.7048 20.0986C28.7048 20.0986 28.7048 20.0986 28.7048 20.0986C28.7048 20.0986 28.7048 20.0986 28.7048 20.0986C28.7048 20.0986 28.7048 20.0986 28.7048 20.0986C28.7048 20.0986 28.7048 20.0986 28.7048 20.0986C28.7048 20.0986 28.7048 20.0986 28.7048 20.0986C28.7049 20.0986 28.7049 20.0986 28.7049 20.0986C28.7049 20.0986 28.7049 20.0986 28.7049 20.0986C28.7049 20.0986 28.7049 20.0986 28.7049 20.0986C28.7049 20.0986 28.7049 20.0986 28.7049 20.0986C28.7049 20.0986 28.7049 20.0986 28.7049 20.0986C28.7049 20.0986 28.7049 20.0986 28.7049 20.0986C28.7049 20.0986 28.7049 20.0986 28.7049 20.0986C28.7049 20.0986 28.7049 20.0986 28.7049 20.0986C28.7049 20.0986 28.7049 20.0986 28.7049 20.0986C28.7049 20.0986 28.7049 20.0986 28.7049 20.0986C28.7049 20.0986 28.7049 20.0986 28.7049 20.0986C28.7049 20.0986 28.7049 20.0986 28.7049 20.0986C28.7049 20.0986 28.7049 20.0986 28.7049 20.0986C28.7049 20.0986 28.7049 20.0986 28.7049 20.0986C28.7049 20.0986 28.7049 20.0986 28.7049 20.0986C28.7049 20.0986 28.7049 20.0986 28.7049 20.0986C28.7049 20.0986 28.7049 20.0986 28.7049 20.0986C28.7049 20.0986 28.7049 20.0986 28.705 20.0986C28.705 20.0986 28.705 20.0986 28.705 20.0986C28.705 20.0986 28.705 20.0986 28.705 20.0986C28.705 20.0986 28.705 20.0986 28.705 20.0986C28.705 20.0986 28.705 20.0986 28.705 20.0986C28.705 20.0986 28.705 20.0986 28.705 20.0986C28.705 20.0986 28.705 20.0986 28.705 20.0986C28.705 20.0986 28.705 20.0986 28.705 20.0986C28.705 20.0986 28.705 20.0986 28.705 20.0986C28.705 20.0986 28.705 20.0986 28.705 20.0986C28.705 20.0986 28.705 20.0986 28.705 20.0986C28.705 20.0986 28.705 20.0986 28.705 20.0986C28.705 20.0986 28.705 20.0986 28.705 20.0986C28.705 20.0986 28.705 20.0986 28.705 20.0986C28.705 20.0986 28.705 20.0986 28.705 20.0986C28.705 20.0986 28.705 20.0986 28.705 20.0986C28.705 20.0986 28.705 20.0986 28.705 20.0986C28.705 20.0986 28.705 20.0986 28.705 20.0986C28.705 20.0986 28.705 20.0986 28.705 20.0986C28.705 20.0986 28.705 20.0986 28.705 20.0986C28.7051 20.0986 28.7051 20.0986 28.7051 20.0986C28.7051 20.0986 28.7051 20.0986 28.7051 20.0986C28.7051 20.0986 28.7051 20.0986 28.7051 20.0986C28.7051 20.0986 28.7051 20.0986 28.7051 20.0986C28.7051 20.0986 28.7051 20.0986 28.7051 20.0986C28.7051 20.0986 28.7051 20.0986 28.7051 20.0986C28.7051 20.0986 28.7051 20.0986 28.7051 20.0986C28.7051 20.0986 28.7051 20.0986 28.7051 20.0986C28.7051 20.0986 28.7051 20.0986 28.7051 20.0986C28.7051 20.0986 28.7051 20.0986 28.7051 20.0986C28.7051 20.0986 28.7051 20.0986 28.7051 20.0986C28.7051 20.0986 28.7051 20.0986 28.7051 20.0986C28.7051 20.0986 28.7051 20.0986 28.7051 20.0986C28.7051 20.0986 28.7051 20.0986 28.7051 20.0986C28.7051 20.0986 28.7051 20.0986 28.7051 20.0986C28.7051 20.0986 28.7051 20.0986 28.7051 20.0986C28.7051 20.0986 28.7051 20.0986 28.7051 20.0986C28.7051 20.0986 28.7051 20.0986 28.7051 20.0986C28.7051 20.0986 28.7051 20.0986 28.7051 20.0986C28.7051 20.0986 28.7051 20.0986 28.7051 20.0986C28.7051 20.0986 28.7051 20.0986 28.7051 20.0986C28.7051 20.0986 28.7052 20.0986 28.7052 20.0986C28.7052 20.0986 28.7052 20.0986 28.7052 20.0986C28.7052 20.0986 28.7052 20.0986 28.7052 20.0986C28.7052 20.0986 28.7052 20.0986 28.7052 20.0986C28.7052 20.0986 28.7052 20.0986 28.7052 20.0986C28.7052 20.0986 28.7052 20.0986 28.7052 20.0986C28.7052 20.0986 28.7052 20.0986 28.7052 20.0986C28.7052 20.0986 28.7052 20.0986 28.7052 20.0986C28.7052 20.0986 28.7052 20.0986 28.7052 20.0986C28.7052 20.0986 28.7052 20.0986 28.7052 20.0986C28.7052 20.0986 28.7052 20.0986 28.7052 20.0986C28.7052 20.0986 28.7052 20.0986 28.7052 20.0986C28.7052 20.0986 28.7052 20.0986 28.7052 20.0986C28.7052 20.0986 28.7052 20.0986 28.7052 20.0986C28.7052 20.0986 28.7052 20.0986 28.7052 20.0986C28.7052 20.0986 28.7052 20.0986 28.7052 20.0986C28.7052 20.0986 28.7052 20.0986 28.7052 20.0986C28.7052 20.0986 28.7052 20.0986 28.7052 20.0986C28.7052 20.0986 28.7052 20.0986 28.7052 20.0986C28.7052 20.0986 28.7052 20.0986 28.7052 20.0986C28.7052 20.0986 28.7052 20.0986 28.7052 20.0986C28.7052 20.0986 28.7052 20.0986 28.7052 20.0986C28.7052 20.0986 28.7052 20.0986 28.7052 20.0986C28.7052 20.0986 28.7052 20.0986 28.7052 20.0986C28.7053 20.0986 28.7053 20.0986 28.7053 20.0986C28.7053 20.0986 28.7053 20.0986 28.7053 20.0986C28.7053 20.0986 28.7053 20.0986 28.7053 20.0986C28.7053 20.0986 28.7053 20.0986 28.7053 20.0986C28.7053 20.0986 28.7053 20.0986 28.7053 20.0986C28.7053 20.0986 28.7053 20.0986 28.7053 20.0986C28.7053 20.0986 28.7053 20.0986 28.7053 20.0986C28.7053 20.0986 28.7053 20.0986 28.7053 20.0986C28.7053 20.0986 28.7053 20.0986 28.7053 20.0986C28.7053 20.0986 28.7053 20.0986 28.7053 20.0986C28.7053 20.0986 28.7053 20.0986 28.7053 20.0986C28.7053 20.0986 28.7053 20.0986 28.7053 20.0986C28.7053 20.0986 28.7053 20.0986 28.7053 20.0986C28.7053 20.0986 28.7053 20.0986 28.7053 20.0986C28.7053 20.0986 28.7053 20.0986 28.7053 20.0986C28.7053 20.0986 28.7053 20.0986 28.7053 20.0986C28.7053 20.0986 28.7053 20.0986 28.7053 20.0986C28.7053 20.0986 28.7053 20.0986 28.7053 20.0986C28.7053 20.0986 28.7053 20.0986 28.7053 20.0986C28.7053 20.0986 28.7053 20.0986 28.7053 20.0986C28.7053 20.0986 28.7053 20.0986 28.7053 20.0986C28.7053 20.0986 28.7053 20.0986 28.7053 20.0986C28.7053 20.0986 28.7053 20.0986 28.7053 20.0986C28.7053 20.0986 28.7053 20.0986 28.7053 20.0986C28.7053 20.0986 28.7053 20.0986 28.7053 20.0986C28.7053 20.0986 28.7053 20.0986 28.7053 20.0986C28.7053 20.0986 28.7053 20.0986 28.7053 20.0986C28.7054 20.0986 28.7054 20.0986 28.7054 20.0986C28.7054 20.0986 28.7054 20.0986 28.7054 20.0986C28.7054 20.0986 28.7054 20.0986 28.7054 20.0986C28.7054 20.0986 28.7054 20.0986 28.7054 20.0986C28.7054 20.0986 28.7054 20.0986 28.7054 20.0986C28.7054 20.0986 28.7054 20.0986 28.7054 20.0986C28.7054 20.0986 28.7054 20.0986 28.7054 20.0986C28.7054 20.0986 28.7054 20.0986 28.7054 20.0986C28.7054 20.0986 28.7054 20.0986 28.7054 20.0986C28.7054 20.0986 28.7054 20.0986 28.7054 20.0986C28.7054 20.0986 28.7054 20.0986 28.7054 20.0986C28.7054 20.0986 28.7054 20.0986 28.7054 20.0986C28.7054 20.0986 28.7054 20.0986 28.7054 20.0986C28.7054 20.0986 28.7054 20.0986 28.7054 20.0986C28.7054 20.0986 28.7054 20.0986 28.7054 20.0986C28.7054 20.0986 28.7054 20.0986 28.7054 20.0986C28.7054 20.0986 28.7054 20.0986 28.7054 20.0986C28.7054 20.0986 28.7054 20.0986 28.7054 20.0986C28.7054 20.0986 28.7054 20.0986 28.7054 20.0986C28.7054 20.0986 28.7054 20.0986 28.7054 20.0986C28.7054 20.0986 28.7054 20.0986 28.7054 20.0986C28.7054 20.0986 28.7054 20.0986 28.7054 20.0986C28.7054 20.0986 28.7054 20.0986 28.7054 20.0986C28.7054 20.0986 28.7054 20.0986 28.7054 20.0986C28.7054 20.0986 28.7054 20.0986 28.7054 20.0986C28.7054 20.0986 28.7054 20.0986 28.7054 20.0986C28.7054 20.0986 28.7054 20.0986 28.7054 20.0986C28.7054 20.0986 28.7054 20.0986 28.7054 20.0986C28.7054 20.0986 28.7054 20.0986 28.7054 20.0986C28.7054 20.0986 28.7054 20.0986 28.7054 20.0986C28.7054 20.0986 28.7054 20.0986 28.7054 20.0986C28.7055 20.0986 28.7055 20.0986 28.7055 20.0986C28.7055 20.0986 28.7055 20.0986 28.7055 20.0986C28.7055 20.0986 28.7055 20.0986 28.7055 20.0986C28.7055 20.0986 28.7055 20.0986 28.7055 20.0986C28.7055 20.0986 28.7055 20.0986 28.7055 20.0986C28.7055 20.0986 28.7055 20.0986 28.7055 20.0986C28.7055 20.0986 28.7055 20.0986 28.7055 20.0986C28.7055 20.0986 28.7055 20.0986 28.7055 20.0986C28.7055 20.0986 28.7055 20.0986 28.7055 20.0986C28.7055 20.0986 28.7055 20.0986 28.7055 20.0986C28.7055 20.0986 28.7055 20.0986 28.7055 20.0986C28.7055 20.0986 28.7055 20.0986 28.7055 20.0986C28.7055 20.0986 28.7055 20.0986 28.7055 20.0986C28.7055 20.0986 28.7055 20.0986 28.7055 20.0986C28.7055 20.0986 28.7055 20.0986 28.7055 20.0986C28.7055 20.0986 28.7055 20.0986 28.7055 20.0986C28.7055 20.0986 28.7055 20.0986 28.7055 20.0986C28.7055 20.0986 28.7055 20.0986 28.7055 20.0986C28.7055 20.0986 28.7055 20.0986 28.7055 20.0986C28.7055 20.0986 28.7055 20.0986 28.7055 20.0986C28.7055 20.0986 28.7055 20.0986 28.7055 20.0986C28.7055 20.0986 28.7055 20.0986 28.7055 20.0986C28.7055 20.0986 28.7055 20.0986 28.7055 20.0986C28.7055 20.0986 28.7055 20.0986 28.7055 20.0986C28.7055 20.0986 28.7055 20.0986 28.7055 20.0986C28.7055 20.0986 28.7055 20.0986 28.7055 20.0986C28.7055 20.0986 28.7055 20.0986 28.7055 20.0986C28.7055 20.0986 28.7055 20.0986 28.7055 20.0986C28.7055 20.0986 28.7055 20.0986 28.7055 20.0986C28.7055 20.0986 28.7055 20.0986 28.7055 20.0986C28.7055 20.0986 28.7055 20.0986 28.7055 20.0986C28.7055 20.0986 28.7055 20.0986 28.7055 20.0986C28.7055 20.0986 28.7055 20.0986 28.7055 20.0986C28.7055 20.0986 28.7055 20.0986 28.7055 20.0986C28.7055 20.0986 28.7055 20.0986 28.7055 20.0986C28.7055 20.0986 28.7055 20.0986 28.7055 20.0986C28.7055 20.0986 28.7055 20.0986 28.7055 20.0986C28.7055 20.0986 28.7055 20.0986 28.7055 20.0986C28.7055 20.0986 28.7055 20.0986 28.7056 20.0986C28.7056 20.0986 28.7056 20.0986 28.7056 20.0986C28.7056 20.0986 28.7056 20.0986 28.7056 20.0986C28.7056 20.0986 28.7056 20.0986 28.7056 20.0986C28.7056 20.0986 28.7056 20.0986 28.7056 20.0986C28.7056 20.0986 28.7056 20.0986 28.7056 20.0986C28.7056 20.0986 28.7056 20.0986 28.7056 20.0986C28.7056 20.0986 28.7056 20.0986 28.7056 20.0986C28.7056 20.0986 28.7056 20.0986 28.7056 20.0986C28.7056 20.0986 28.7056 20.0986 28.7056 20.0986C28.7056 20.0986 28.7056 20.0986 28.7056 20.0986C28.7056 20.0986 28.7056 20.0986 28.7056 20.0986C28.7056 20.0986 28.7056 20.0986 28.7056 20.0986C28.7056 20.0986 28.7056 20.0986 28.7056 20.0986C28.7056 20.0986 28.7056 20.0986 28.7056 20.0986C28.7056 20.0986 28.7056 20.0986 28.7056 20.0986C28.7056 20.0986 28.7056 20.0986 28.7056 20.0986C28.7056 20.0986 28.7056 20.0986 28.7056 20.0986C28.7056 20.0986 28.7056 20.0986 28.7056 20.0986C28.7056 20.0986 28.7056 20.0986 28.7056 20.0986C28.7056 20.0986 28.7056 20.0986 28.7056 20.0986C28.7056 20.0986 28.7056 20.0986 28.7056 20.0986C28.7056 20.0986 28.7056 20.0986 28.7056 20.0986C28.7056 20.0986 28.7056 20.0986 28.7056 20.0986C28.7056 20.0986 28.7056 20.0986 28.7056 20.0986C28.7056 20.0986 28.7056 20.0986 28.7056 20.0986C28.7056 20.0986 28.7056 20.0986 28.7056 20.0986C28.7056 20.0986 28.7056 20.0986 28.7056 20.0986C28.7056 20.0986 28.7056 20.0986 28.7056 20.0986C28.7056 20.0986 28.7056 20.0986 28.7056 20.0986C28.7056 20.0986 28.7056 20.0986 28.7056 20.0986C28.7056 20.0986 28.7056 20.0986 28.7056 20.0986C28.7056 20.0986 28.7056 20.0986 28.7056 20.0986C28.7056 20.0986 28.7056 20.0986 28.7056 20.0986C28.7056 20.0986 28.7056 20.0986 28.7056 20.0986C28.7056 20.0986 28.7056 20.0986 28.7056 20.0986C28.7056 20.0986 28.7056 20.0986 28.7056 20.0986H28.7056C28.7056 20.0986 28.7056 20.0986 28.7056 20.0986C28.7056 20.0986 28.7056 20.0986 28.7056 20.0986C28.7056 20.0986 28.7056 20.0986 28.7056 20.0986C28.7056 20.0986 28.7056 20.0986 28.7056 20.0986H28.7056C28.7056 20.0986 28.7056 20.0986 28.7056 20.0986C28.7056 20.0986 28.7056 20.0986 28.7056 20.0986C28.7056 20.0986 28.7056 20.0986 28.7056 20.0986H28.7056C28.7056 20.0986 28.7056 20.0986 28.7056 20.0986C28.7056 20.0986 28.7056 20.0986 28.7056 20.0986H28.7056C28.7056 20.0986 28.7056 20.0986 28.7056 20.0986C28.7056 20.0986 28.7056 20.0986 28.7056 20.0986H28.7056C28.7056 20.0986 28.7056 20.0986 28.7057 20.0986C28.7057 20.0986 28.7057 20.0986 28.7057 20.0986H28.7057C28.7057 20.0986 28.7057 20.0986 28.7057 20.0986H28.7057C28.7057 20.0986 28.7057 20.0986 28.7057 20.0986H28.7057C28.7057 20.0986 28.7057 20.0986 28.7057 20.0986C28.7057 20.0986 28.7057 20.0986 28.7057 20.0986H28.7057C28.7057 20.0986 28.7057 20.0986 28.7057 20.0986H28.7057H28.7057C28.7057 20.0986 28.7057 20.0986 28.7057 20.0986H28.7057C28.7057 20.0986 28.7057 20.0986 28.7057 20.0986H28.7057C28.7057 20.0986 28.7057 20.0986 28.7057 20.0986H28.7057H28.7057C28.7057 20.0986 28.7057 20.0986 28.7057 20.0986H28.7057C28.7057 20.0986 28.7057 20.0986 28.7057 20.0986C28.7057 20.0986 28.7057 20.0986 28.7057 20.0986H28.7057C28.7057 20.0986 28.7057 20.0986 28.7057 20.0986C28.7057 20.0986 28.7057 20.0986 28.7057 20.0986H28.7057H28.7057C28.7057 20.0986 28.7057 20.0986 28.7057 20.0986C28.7057 20.0986 28.7057 20.0986 28.7057 20.0986H28.7057H28.7057C28.7057 20.0986 28.7057 20.0986 28.7057 20.0986C28.7057 20.0986 28.7057 20.0986 28.7057 20.0986C28.7057 20.0986 28.7057 20.0986 28.7057 20.0986H28.7057H28.7057C28.7057 20.0986 28.7057 20.0986 28.7057 20.0986C28.7057 20.0986 28.7057 20.0986 28.7057 20.0986C28.7057 20.0986 28.7057 20.0986 28.7057 20.0986C28.7057 20.0986 28.7057 20.0986 28.7057 20.0986H28.7057H28.7057H28.7057C28.7057 20.0986 28.7057 20.0986 28.7057 20.0986C28.7057 20.0986 28.7057 20.0986 28.7057 20.0986C28.7057 20.0986 28.7057 20.0986 28.7057 20.0986C28.7057 20.0986 28.7057 20.0986 28.7057 20.0986C28.7057 20.0986 28.7057 20.0986 28.7057 20.0986C28.7057 20.0986 28.7057 20.0986 28.7057 20.0986C28.7057 20.0986 28.7057 20.0986 28.7057 20.0986C28.7057 20.0986 28.7057 20.0986 28.7057 20.0986C28.7057 20.0986 28.7057 20.0986 28.7057 20.0986C28.7057 20.0986 28.7057 20.0986 28.7057 20.0986C28.7057 20.0986 28.7057 20.0986 28.7057 20.0986C28.7057 20.0986 28.7057 20.0986 28.7057 20.0986C28.7057 20.0986 28.7057 20.0986 28.7057 20.0986C28.7057 20.0986 28.7057 20.0986 28.7057 20.0986C28.7057 20.0986 28.7057 20.0986 28.7057 20.0986C28.7057 20.0986 28.7057 20.0986 28.7057 20.0986H28.7057H28.7057H28.7057C28.7057 20.0986 28.7057 20.0986 28.7057 20.0986C28.7057 20.0986 28.7057 20.0986 28.7057 20.0986C28.7057 20.0986 28.7057 20.0986 28.7057 20.0986C28.7057 20.0986 28.7057 20.0986 28.7057 20.0986H28.7057H28.7057C28.7057 20.0986 28.7057 20.0986 28.7057 20.0986C28.7057 20.0986 28.7057 20.0986 28.7057 20.0986H28.7057H28.7057C28.7057 20.0986 28.7057 20.0986 28.7057 20.0986C28.7057 20.0986 28.7057 20.0986 28.7057 20.0986H28.7057C28.7057 20.0986 28.7057 20.0986 28.7057 20.0986H28.7057C28.7057 20.0986 28.7057 20.0986 28.7057 20.0986C28.7057 20.0986 28.7057 20.0986 28.7057 20.0986C28.7057 20.0986 28.7057 20.0986 28.7057 20.0986C28.7057 20.0986 28.7057 20.0986 28.7057 20.0986C28.7057 20.0986 28.7057 20.0986 28.7057 20.0986C28.7057 20.0986 28.7057 20.0986 28.7057 20.0986C28.7057 20.0986 28.7057 20.0986 28.7057 20.0986H28.7057C28.7057 20.0986 28.7057 20.0986 28.7057 20.0986C28.7057 20.0986 28.7057 20.0986 28.7057 20.0986H28.7058C28.7058 20.0986 28.7058 20.0986 28.7058 20.0986C28.7058 20.0986 28.7058 20.0986 28.7058 20.0986C28.7058 20.0986 28.7058 20.0986 28.7058 20.0986C28.7058 20.0986 28.7058 20.0986 28.7058 20.0986C28.7058 20.0986 28.7058 20.0986 28.7058 20.0986C28.7058 20.0986 28.7058 20.0986 28.7058 20.0986C28.7058 20.0986 28.7058 20.0986 28.7058 20.0986C28.7058 20.0986 28.7058 20.0986 28.7058 20.0986C28.7058 20.0986 28.7058 20.0986 28.7058 20.0986H28.7058C28.7058 20.0986 28.7058 20.0986 28.7058 20.0986H28.7058C28.7058 20.0986 28.7058 20.0986 28.7058 20.0986C28.7058 20.0986 28.7058 20.0986 28.7058 20.0986H28.7058H28.7058C28.7058 20.0986 28.7058 20.0986 28.7058 20.0986C28.7058 20.0986 28.7058 20.0986 28.7058 20.0986C28.7058 20.0986 28.7058 20.0986 28.7058 20.0986H28.7058C28.7058 20.0986 28.7058 20.0986 28.7058 20.0986H28.7058C28.7058 20.0986 28.7058 20.0986 28.7058 20.0986C28.7058 20.0986 28.7058 20.0986 28.7058 20.0986C28.7058 20.0986 28.7058 20.0986 28.7058 20.0986C28.7058 20.0986 28.7058 20.0986 28.7058 20.0986H28.7058C28.7058 19.9486 28.7058 19.7986 28.7058 19.9486C28.7058 20.0986 28.7058 19.9486 28.7058 19.7986H28.7058C28.7058 19.7986 28.7058 19.7986 28.7058 19.7986C28.7058 19.7986 28.7058 19.7986 28.7058 19.7986C28.7058 19.7986 28.7058 19.7986 28.7058 19.7986C28.7058 19.7986 28.7058 19.7986 28.7058 19.7986H28.7058C28.7058 19.7986 28.7058 19.7986 28.7058 19.7986H28.7058C28.7058 19.7986 28.7058 19.7986 28.7058 19.7986C28.7058 19.7986 28.7058 19.7986 28.7058 19.7986C28.7058 19.7986 28.7058 19.7986 28.7058 19.7986H28.7058H28.7058C28.7058 19.7986 28.7058 19.7986 28.7058 19.7986C28.7058 19.7986 28.7058 19.7986 28.7058 19.7986H28.7058C28.7058 19.7986 28.7058 19.7986 28.7058 19.7986H28.7058C28.7058 19.7986 28.7058 19.7986 28.7058 19.7986C28.7058 19.7986 28.7058 19.7986 28.7058 19.7986C28.7058 19.7986 28.7058 19.7986 28.7058 19.7986C28.7058 19.7986 28.7058 19.7986 28.7058 19.7986C28.7058 19.7986 28.7058 19.7986 28.7058 19.7986C28.7058 19.7986 28.7058 19.7986 28.7058 19.7986C28.7058 19.7986 28.7058 19.7986 28.7058 19.7986C28.7058 19.7986 28.7058 19.7986 28.7058 19.7986C28.7058 19.7986 28.7058 19.7986 28.7058 19.7986H28.7057C28.7057 19.7986 28.7057 19.7986 28.7057 19.7986C28.7057 19.7986 28.7057 19.7986 28.7057 19.7986H28.7057C28.7057 19.7986 28.7057 19.7986 28.7057 19.7986C28.7057 19.7986 28.7057 19.7986 28.7057 19.7986C28.7057 19.7986 28.7057 19.7986 28.7057 19.7986C28.7057 19.7986 28.7057 19.7986 28.7057 19.7986C28.7057 19.7986 28.7057 19.7986 28.7057 19.7986C28.7057 19.7986 28.7057 19.7986 28.7057 19.7986C28.7057 19.7986 28.7057 19.7986 28.7057 19.7986H28.7057C28.7057 19.7986 28.7057 19.7986 28.7057 19.7986H28.7057C28.7057 19.7986 28.7057 19.7986 28.7057 19.7986C28.7057 19.7986 28.7057 19.7986 28.7057 19.7986H28.7057H28.7057C28.7057 19.7986 28.7057 19.7986 28.7057 19.7986C28.7057 19.7986 28.7057 19.7986 28.7057 19.7986H28.7057H28.7057C28.7057 19.7986 28.7057 19.7986 28.7057 19.7986C28.7057 19.7986 28.7057 19.7986 28.7057 19.7986C28.7057 19.7986 28.7057 19.7986 28.7057 19.7986C28.7057 19.7986 28.7057 19.7986 28.7057 19.7986H28.7057H28.7057H28.7057C28.7057 19.7986 28.7057 19.7986 28.7057 19.7986C28.7057 19.7986 28.7057 19.7986 28.7057 19.7986C28.7057 19.7986 28.7057 19.7986 28.7057 19.7986C28.7057 19.7986 28.7057 19.7986 28.7057 19.7986C28.7057 19.7986 28.7057 19.7986 28.7057 19.7986C28.7057 19.7986 28.7057 19.7986 28.7057 19.7986C28.7057 19.7986 28.7057 19.7986 28.7057 19.7986C28.7057 19.7986 28.7057 19.7986 28.7057 19.7986C28.7057 19.7986 28.7057 19.7986 28.7057 19.7986C28.7057 19.7986 28.7057 19.7986 28.7057 19.7986C28.7057 19.7986 28.7057 19.7986 28.7057 19.7986C28.7057 19.7986 28.7057 19.7986 28.7057 19.7986C28.7057 19.7986 28.7057 19.7986 28.7057 19.7986C28.7057 19.7986 28.7057 19.7986 28.7057 19.7986C28.7057 19.7986 28.7057 19.7986 28.7057 19.7986C28.7057 19.7986 28.7057 19.7986 28.7057 19.7986H28.7057H28.7057H28.7057C28.7057 19.7986 28.7057 19.7986 28.7057 19.7986C28.7057 19.7986 28.7057 19.7986 28.7057 19.7986C28.7057 19.7986 28.7057 19.7986 28.7057 19.7986C28.7057 19.7986 28.7057 19.7986 28.7057 19.7986H28.7057H28.7057C28.7057 19.7986 28.7057 19.7986 28.7057 19.7986C28.7057 19.7986 28.7057 19.7986 28.7057 19.7986C28.7057 19.7986 28.7057 19.7986 28.7057 19.7986H28.7057H28.7057C28.7057 19.7986 28.7057 19.7986 28.7057 19.7986C28.7057 19.7986 28.7057 19.7986 28.7057 19.7986H28.7057H28.7057C28.7057 19.7986 28.7057 19.7986 28.7057 19.7986C28.7057 19.7986 28.7057 19.7986 28.7057 19.7986H28.7057C28.7057 19.7986 28.7057 19.7986 28.7057 19.7986C28.7057 19.7986 28.7057 19.7986 28.7057 19.7986H28.7057C28.7057 19.7986 28.7057 19.7986 28.7057 19.7986H28.7057H28.7057C28.7057 19.7986 28.7057 19.7986 28.7057 19.7986H28.7057C28.7057 19.7986 28.7057 19.7986 28.7057 19.7986H28.7057C28.7057 19.7986 28.7057 19.7986 28.7057 19.7986H28.7057H28.7057C28.7057 19.7986 28.7057 19.7986 28.7057 19.7986H28.7057C28.7057 19.7986 28.7057 19.7986 28.7057 19.7986C28.7057 19.7986 28.7057 19.7986 28.7057 19.7986H28.7057C28.7057 19.7986 28.7057 19.7986 28.7057 19.7986H28.7057C28.7057 19.7986 28.7057 19.7986 28.7057 19.7986H28.7057C28.7057 19.7986 28.7057 19.7986 28.7057 19.7986C28.7056 19.7986 28.7056 19.7986 28.7056 19.7986H28.7056C28.7056 19.7986 28.7056 19.7986 28.7056 19.7986C28.7056 19.7986 28.7056 19.7986 28.7056 19.7986H28.7056C28.7056 19.7986 28.7056 19.7986 28.7056 19.7986C28.7056 19.7986 28.7056 19.7986 28.7056 19.7986H28.7056C28.7056 19.7986 28.7056 19.7986 28.7056 19.7986C28.7056 19.7986 28.7056 19.7986 28.7056 19.7986C28.7056 19.7986 28.7056 19.7986 28.7056 19.7986H28.7056C28.7056 19.7986 28.7056 19.7986 28.7056 19.7986C28.7056 19.7986 28.7056 19.7986 28.7056 19.7986C28.7056 19.7986 28.7056 19.7986 28.7056 19.7986C28.7056 19.7986 28.7056 19.7986 28.7056 19.7986H28.7056C28.7056 19.7986 28.7056 19.7986 28.7056 19.7986C28.7056 19.7986 28.7056 19.7986 28.7056 19.7986C28.7056 19.7986 28.7056 19.7986 28.7056 19.7986C28.7056 19.7986 28.7056 19.7986 28.7056 19.7986C28.7056 19.7986 28.7056 19.7986 28.7056 19.7986C28.7056 19.7986 28.7056 19.7986 28.7056 19.7986C28.7056 19.7986 28.7056 19.7986 28.7056 19.7986C28.7056 19.7986 28.7056 19.7986 28.7056 19.7986C28.7056 19.7986 28.7056 19.7986 28.7056 19.7986C28.7056 19.7986 28.7056 19.7986 28.7056 19.7986C28.7056 19.7986 28.7056 19.7986 28.7056 19.7986C28.7056 19.7986 28.7056 19.7986 28.7056 19.7986C28.7056 19.7986 28.7056 19.7986 28.7056 19.7986C28.7056 19.7986 28.7056 19.7986 28.7056 19.7986C28.7056 19.7986 28.7056 19.7986 28.7056 19.7986C28.7056 19.7986 28.7056 19.7986 28.7056 19.7986C28.7056 19.7986 28.7056 19.7986 28.7056 19.7986C28.7056 19.7986 28.7056 19.7986 28.7056 19.7986C28.7056 19.7986 28.7056 19.7986 28.7056 19.7986C28.7056 19.7986 28.7056 19.7986 28.7056 19.7986C28.7056 19.7986 28.7056 19.7986 28.7056 19.7986C28.7056 19.7986 28.7056 19.7986 28.7056 19.7986C28.7056 19.7986 28.7056 19.7986 28.7056 19.7986C28.7056 19.7986 28.7056 19.7986 28.7056 19.7986C28.7056 19.7986 28.7056 19.7986 28.7056 19.7986C28.7056 19.7986 28.7056 19.7986 28.7056 19.7986C28.7056 19.7986 28.7056 19.7986 28.7056 19.7986C28.7056 19.7986 28.7056 19.7986 28.7056 19.7986C28.7056 19.7986 28.7056 19.7986 28.7056 19.7986C28.7056 19.7986 28.7056 19.7986 28.7056 19.7986C28.7056 19.7986 28.7056 19.7986 28.7056 19.7986C28.7056 19.7986 28.7056 19.7986 28.7056 19.7986C28.7056 19.7986 28.7056 19.7986 28.7056 19.7986C28.7056 19.7986 28.7056 19.7986 28.7056 19.7986C28.7056 19.7986 28.7056 19.7986 28.7056 19.7986C28.7056 19.7986 28.7056 19.7986 28.7056 19.7986C28.7055 19.7986 28.7055 19.7986 28.7055 19.7986C28.7055 19.7986 28.7055 19.7986 28.7055 19.7986C28.7055 19.7986 28.7055 19.7986 28.7055 19.7986C28.7055 19.7986 28.7055 19.7986 28.7055 19.7986C28.7055 19.7986 28.7055 19.7986 28.7055 19.7986C28.7055 19.7986 28.7055 19.7986 28.7055 19.7986C28.7055 19.7986 28.7055 19.7986 28.7055 19.7986C28.7055 19.7986 28.7055 19.7986 28.7055 19.7986C28.7055 19.7986 28.7055 19.7986 28.7055 19.7986C28.7055 19.7986 28.7055 19.7986 28.7055 19.7986C28.7055 19.7986 28.7055 19.7986 28.7055 19.7986C28.7055 19.7986 28.7055 19.7986 28.7055 19.7986C28.7055 19.7986 28.7055 19.7986 28.7055 19.7986C28.7055 19.7986 28.7055 19.7986 28.7055 19.7986C28.7055 19.7986 28.7055 19.7986 28.7055 19.7986C28.7055 19.7986 28.7055 19.7986 28.7055 19.7986C28.7055 19.7986 28.7055 19.7986 28.7055 19.7986C28.7055 19.7986 28.7055 19.7986 28.7055 19.7986C28.7055 19.7986 28.7055 19.7986 28.7055 19.7986C28.7055 19.7986 28.7055 19.7986 28.7055 19.7986C28.7055 19.7986 28.7055 19.7986 28.7055 19.7986C28.7055 19.7986 28.7055 19.7986 28.7055 19.7986C28.7055 19.7986 28.7055 19.7986 28.7055 19.7986C28.7055 19.7986 28.7055 19.7986 28.7055 19.7986C28.7055 19.7986 28.7055 19.7986 28.7055 19.7986C28.7055 19.7986 28.7055 19.7986 28.7055 19.7986C28.7055 19.7986 28.7055 19.7986 28.7055 19.7986C28.7055 19.7986 28.7055 19.7986 28.7055 19.7986C28.7055 19.7986 28.7055 19.7986 28.7055 19.7986C28.7055 19.7986 28.7055 19.7986 28.7055 19.7986C28.7055 19.7986 28.7055 19.7986 28.7055 19.7986C28.7055 19.7986 28.7055 19.7986 28.7055 19.7986C28.7055 19.7986 28.7055 19.7986 28.7055 19.7986C28.7055 19.7986 28.7055 19.7986 28.7055 19.7986C28.7055 19.7986 28.7055 19.7986 28.7055 19.7986C28.7055 19.7986 28.7055 19.7986 28.7055 19.7986C28.7055 19.7986 28.7055 19.7986 28.7055 19.7986C28.7055 19.7986 28.7055 19.7986 28.7055 19.7986C28.7055 19.7986 28.7055 19.7986 28.7054 19.7986C28.7054 19.7986 28.7054 19.7986 28.7054 19.7986C28.7054 19.7986 28.7054 19.7986 28.7054 19.7986C28.7054 19.7986 28.7054 19.7986 28.7054 19.7986C28.7054 19.7986 28.7054 19.7986 28.7054 19.7986C28.7054 19.7986 28.7054 19.7986 28.7054 19.7986C28.7054 19.7986 28.7054 19.7986 28.7054 19.7986C28.7054 19.7986 28.7054 19.7986 28.7054 19.7986C28.7054 19.7986 28.7054 19.7986 28.7054 19.7986C28.7054 19.7986 28.7054 19.7986 28.7054 19.7986C28.7054 19.7986 28.7054 19.7986 28.7054 19.7986C28.7054 19.7986 28.7054 19.7986 28.7054 19.7986C28.7054 19.7986 28.7054 19.7986 28.7054 19.7986C28.7054 19.7986 28.7054 19.7986 28.7054 19.7986C28.7054 19.7986 28.7054 19.7986 28.7054 19.7986C28.7054 19.7986 28.7054 19.7986 28.7054 19.7986C28.7054 19.7986 28.7054 19.7986 28.7054 19.7986C28.7054 19.7986 28.7054 19.7986 28.7054 19.7986C28.7054 19.7986 28.7054 19.7986 28.7054 19.7986C28.7054 19.7986 28.7054 19.7986 28.7054 19.7986C28.7054 19.7986 28.7054 19.7986 28.7054 19.7986C28.7054 19.7986 28.7054 19.7986 28.7054 19.7986C28.7054 19.7986 28.7054 19.7986 28.7054 19.7986C28.7054 19.7986 28.7054 19.7986 28.7054 19.7986C28.7054 19.7986 28.7054 19.7986 28.7054 19.7986C28.7054 19.7986 28.7054 19.7986 28.7054 19.7986C28.7054 19.7986 28.7054 19.7986 28.7054 19.7986C28.7054 19.7986 28.7054 19.7986 28.7054 19.7986C28.7054 19.7986 28.7054 19.7986 28.7054 19.7986C28.7054 19.7986 28.7054 19.7986 28.7054 19.7986C28.7054 19.7986 28.7054 19.7986 28.7054 19.7986C28.7054 19.7986 28.7054 19.7986 28.7053 19.7986C28.7053 19.7986 28.7053 19.7986 28.7053 19.7986C28.7053 19.7986 28.7053 19.7986 28.7053 19.7986C28.7053 19.7986 28.7053 19.7986 28.7053 19.7986C28.7053 19.7986 28.7053 19.7986 28.7053 19.7986C28.7053 19.7986 28.7053 19.7986 28.7053 19.7986C28.7053 19.7986 28.7053 19.7986 28.7053 19.7986C28.7053 19.7986 28.7053 19.7986 28.7053 19.7986C28.7053 19.7986 28.7053 19.7986 28.7053 19.7986C28.7053 19.7986 28.7053 19.7986 28.7053 19.7986C28.7053 19.7986 28.7053 19.7986 28.7053 19.7986C28.7053 19.7986 28.7053 19.7986 28.7053 19.7986C28.7053 19.7986 28.7053 19.7986 28.7053 19.7986C28.7053 19.7986 28.7053 19.7986 28.7053 19.7986C28.7053 19.7986 28.7053 19.7986 28.7053 19.7986C28.7053 19.7986 28.7053 19.7986 28.7053 19.7986C28.7053 19.7986 28.7053 19.7986 28.7053 19.7986C28.7053 19.7986 28.7053 19.7986 28.7053 19.7986C28.7053 19.7986 28.7053 19.7986 28.7053 19.7986C28.7053 19.7986 28.7053 19.7986 28.7053 19.7986C28.7053 19.7986 28.7053 19.7986 28.7053 19.7986C28.7053 19.7986 28.7053 19.7986 28.7053 19.7986C28.7053 19.7986 28.7053 19.7986 28.7053 19.7986C28.7053 19.7986 28.7053 19.7986 28.7053 19.7986C28.7053 19.7986 28.7053 19.7986 28.7053 19.7986C28.7053 19.7986 28.7053 19.7986 28.7053 19.7986C28.7053 19.7986 28.7053 19.7986 28.7053 19.7986C28.7053 19.7986 28.7053 19.7986 28.7052 19.7986C28.7052 19.7986 28.7052 19.7986 28.7052 19.7986C28.7052 19.7986 28.7052 19.7986 28.7052 19.7986C28.7052 19.7986 28.7052 19.7986 28.7052 19.7986C28.7052 19.7986 28.7052 19.7986 28.7052 19.7986C28.7052 19.7986 28.7052 19.7986 28.7052 19.7986C28.7052 19.7986 28.7052 19.7986 28.7052 19.7986C28.7052 19.7986 28.7052 19.7986 28.7052 19.7986C28.7052 19.7986 28.7052 19.7986 28.7052 19.7986C28.7052 19.7986 28.7052 19.7986 28.7052 19.7986C28.7052 19.7986 28.7052 19.7986 28.7052 19.7986C28.7052 19.7986 28.7052 19.7986 28.7052 19.7986C28.7052 19.7986 28.7052 19.7986 28.7052 19.7986C28.7052 19.7986 28.7052 19.7986 28.7052 19.7986C28.7052 19.7986 28.7052 19.7986 28.7052 19.7986C28.7052 19.7986 28.7052 19.7986 28.7052 19.7986C28.7052 19.7986 28.7052 19.7986 28.7052 19.7986C28.7052 19.7986 28.7052 19.7986 28.7052 19.7986C28.7052 19.7986 28.7052 19.7986 28.7052 19.7986C28.7052 19.7986 28.7052 19.7986 28.7052 19.7986C28.7052 19.7986 28.7052 19.7986 28.7052 19.7986C28.7052 19.7986 28.7052 19.7986 28.7052 19.7986C28.7052 19.7986 28.7052 19.7986 28.7052 19.7986C28.7052 19.7986 28.7052 19.7986 28.7052 19.7986C28.7052 19.7986 28.7051 19.7986 28.7051 19.7986C28.7051 19.7986 28.7051 19.7986 28.7051 19.7986C28.7051 19.7986 28.7051 19.7986 28.7051 19.7986C28.7051 19.7986 28.7051 19.7986 28.7051 19.7986C28.7051 19.7986 28.7051 19.7986 28.7051 19.7986C28.7051 19.7986 28.7051 19.7986 28.7051 19.7986C28.7051 19.7986 28.7051 19.7986 28.7051 19.7986C28.7051 19.7986 28.7051 19.7986 28.7051 19.7986C28.7051 19.7986 28.7051 19.7986 28.7051 19.7986C28.7051 19.7986 28.7051 19.7986 28.7051 19.7986C28.7051 19.7986 28.7051 19.7986 28.7051 19.7986C28.7051 19.7986 28.7051 19.7986 28.7051 19.7986C28.7051 19.7986 28.7051 19.7986 28.7051 19.7986C28.7051 19.7986 28.7051 19.7986 28.7051 19.7986C28.7051 19.7986 28.7051 19.7986 28.7051 19.7986C28.7051 19.7986 28.7051 19.7986 28.7051 19.7986C28.7051 19.7986 28.7051 19.7986 28.7051 19.7986C28.7051 19.7986 28.7051 19.7986 28.7051 19.7986C28.7051 19.7986 28.7051 19.7986 28.7051 19.7986C28.7051 19.7986 28.7051 19.7986 28.7051 19.7986C28.7051 19.7986 28.7051 19.7986 28.7051 19.7986C28.7051 19.7986 28.7051 19.7986 28.705 19.7986C28.705 19.7986 28.705 19.7986 28.705 19.7986C28.705 19.7986 28.705 19.7986 28.705 19.7986C28.705 19.7986 28.705 19.7986 28.705 19.7986C28.705 19.7986 28.705 19.7986 28.705 19.7986C28.705 19.7986 28.705 19.7986 28.705 19.7986C28.705 19.7986 28.705 19.7986 28.705 19.7986C28.705 19.7986 28.705 19.7986 28.705 19.7986C28.705 19.7986 28.705 19.7986 28.705 19.7986C28.705 19.7986 28.705 19.7986 28.705 19.7986C28.705 19.7986 28.705 19.7986 28.705 19.7986C28.705 19.7986 28.705 19.7986 28.705 19.7986C28.705 19.7986 28.705 19.7986 28.705 19.7986C28.705 19.7986 28.705 19.7986 28.705 19.7986C28.705 19.7986 28.705 19.7986 28.705 19.7986C28.705 19.7986 28.705 19.7986 28.705 19.7986C28.705 19.7986 28.705 19.7986 28.705 19.7986C28.705 19.7986 28.705 19.7986 28.705 19.7986C28.705 19.7986 28.705 19.7986 28.705 19.7986C28.705 19.7986 28.705 19.7986 28.705 19.7986C28.7049 19.7986 28.7049 19.7986 28.7049 19.7986C28.7049 19.7986 28.7049 19.7986 28.7049 19.7986C28.7049 19.7986 28.7049 19.7986 28.7049 19.7986C28.7049 19.7986 28.7049 19.7986 28.7049 19.7986C28.7049 19.7986 28.7049 19.7986 28.7049 19.7986C28.7049 19.7986 28.7049 19.7986 28.7049 19.7986C28.7049 19.7986 28.7049 19.7986 28.7049 19.7986C28.7049 19.7986 28.7049 19.7986 28.7049 19.7986C28.7049 19.7986 28.7049 19.7986 28.7049 19.7986C28.7049 19.7986 28.7049 19.7986 28.7049 19.7986C28.7049 19.7986 28.7049 19.7986 28.7049 19.7986C28.7049 19.7986 28.7049 19.7986 28.7049 19.7986C28.7049 19.7986 28.7049 19.7986 28.7049 19.7986C28.7049 19.7986 28.7049 19.7986 28.7049 19.7986C28.7049 19.7986 28.7049 19.7986 28.7049 19.7986C28.7049 19.7986 28.7049 19.7986 28.7049 19.7986C28.7049 19.7986 28.7049 19.7986 28.7049 19.7986C28.7049 19.7986 28.7049 19.7986 28.7048 19.7986C28.7048 19.7986 28.7048 19.7986 28.7048 19.7986C28.7048 19.7986 28.7048 19.7986 28.7048 19.7986C28.7048 19.7986 28.7048 19.7986 28.7048 19.7986C28.7048 19.7986 28.7048 19.7986 28.7048 19.7986C28.7048 19.7986 28.7048 19.7986 28.7048 19.7986C28.7048 19.7986 28.7048 19.7986 28.7048 19.7986C28.7048 19.7986 28.7048 19.7986 28.7048 19.7986C28.7048 19.7986 28.7048 19.7986 28.7048 19.7986C28.7048 19.7986 28.7048 19.7986 28.7048 19.7986C28.7048 19.7986 28.7048 19.7986 28.7048 19.7986C28.7048 19.7986 28.7048 19.7986 28.7048 19.7986C28.7048 19.7986 28.7048 19.7986 28.7048 19.7986C28.7048 19.7986 28.7048 19.7986 28.7048 19.7986C28.7048 19.7986 28.7048 19.7986 28.7048 19.7986C28.7048 19.7986 28.7048 19.7986 28.7048 19.7986C28.7048 19.7986 28.7048 19.7986 28.7048 19.7986C28.7048 19.7986 28.7047 19.7986 28.7047 19.7986C28.7047 19.7986 28.7047 19.7986 28.7047 19.7986C28.7047 19.7986 28.7047 19.7986 28.7047 19.7986C28.7047 19.7986 28.7047 19.7986 28.7047 19.7986C28.7047 19.7986 28.7047 19.7986 28.7047 19.7986C28.7047 19.7986 28.7047 19.7986 28.7047 19.7986C28.7047 19.7986 28.7047 19.7986 28.7047 19.7986C28.7047 19.7986 28.7047 19.7986 28.7047 19.7986C28.7047 19.7986 28.7047 19.7986 28.7047 19.7986C28.7047 19.7986 28.7047 19.7986 28.7047 19.7986C28.7047 19.7986 28.7047 19.7986 28.7047 19.7986C28.7047 19.7986 28.7047 19.7986 28.7047 19.7986C28.7047 19.7986 28.7047 19.7986 28.7047 19.7986C28.7047 19.7986 28.7047 19.7986 28.7047 19.7986C28.7047 19.7986 28.7047 19.7986 28.7047 19.7986C28.7047 19.7986 28.7047 19.7986 28.7047 19.7986C28.7046 19.7986 28.7046 19.7986 28.7046 19.7986C28.7046 19.7986 28.7046 19.7986 28.7046 19.7986V20.0986ZM28.6037 20.0585C28.8916 20.326 29.3406 20.3195 29.6181 20.039L29.4049 19.828C29.2425 19.9921 28.9784 19.9971 28.8079 19.8387L28.6037 20.0585ZM29.6178 20.0393C29.9007 19.755 29.9007 19.2945 29.6164 19.0102L29.4043 19.2223C29.5715 19.3895 29.5715 19.6606 29.4051 19.8277L29.6178 20.0393ZM29.6164 19.0102L29.5469 18.9408L29.3348 19.1529L29.4043 19.2223L29.6164 19.0102ZM29.5497 18.9435C29.2147 18.5907 29.2186 18.0284 29.5724 17.6746L29.3603 17.4625C28.8922 17.9306 28.8845 18.6786 29.3321 19.1501L29.5497 18.9435ZM29.5721 17.6749C29.7386 17.5094 29.9755 17.4259 30.2155 17.4256C30.4563 17.4254 30.6835 17.5089 30.8308 17.6552L31.0422 17.4424C30.8283 17.2299 30.5195 17.1253 30.2151 17.1256C29.9099 17.126 29.5923 17.2318 29.3606 17.4621L29.5721 17.6749ZM30.8255 17.6498L35.1597 22.4134L35.3816 22.2115L31.0474 17.4479L30.8255 17.6498ZM35.1597 22.4134C36.0086 23.3466 36.475 24.5527 36.475 25.8131H36.775C36.775 24.478 36.2807 23.2 35.3816 22.2115L35.1597 22.4134ZM36.475 25.8131C36.4751 27.1613 35.9492 28.4301 34.9955 29.3848L35.2078 29.5968C36.2175 28.586 36.7751 27.2409 36.775 25.8131L36.475 25.8131Z" fill="#158FFF" mask="url(#path-2-outside-1_5412_1157)"/>
</g>
<path id="Vector_3" d="M28.7006 20.018L28.7006 20.018H28.699V19.9463L28.6671 20.0101L28.6656 20.0094L28.6651 20.0091L28.665 20.0091L28.6973 19.9414L28.699 19.9396V19.9378V19.9181M28.699 19.9181L28.6458 19.9952C28.6425 19.9917 28.6384 19.9868 28.6348 19.9806C28.6271 19.9674 28.6183 19.9414 28.6312 19.9125C28.6419 19.8884 28.6612 19.8783 28.6674 19.8753C28.6751 19.8716 28.6818 19.8701 28.6844 19.8696C28.6877 19.8689 28.6903 19.8686 28.6918 19.8684C28.6946 19.8681 28.6967 19.8681 28.6973 19.8681L28.6973 19.8681C28.6986 19.868 28.6997 19.868 28.699 19.868V19.9181Z" fill="#158FFF" stroke="#158FFF" stroke-width="0.15"/>
</g>
</g>
</g>
<g id="Group_5">
<g id="Group_6">
<path id="Vector_4" d="M22.3339 17.358L22.3339 17.3578C21.4779 15.4651 19.591 14.2414 17.5228 14.2414C14.6093 14.2414 12.2385 16.6122 12.2385 19.5257C12.2385 21.5928 13.4621 23.4808 15.3537 24.3368L15.354 24.3369C15.4415 24.3761 15.533 24.3944 15.6231 24.3944C15.8729 24.3944 16.1095 24.2506 16.2192 24.0102L16.2194 24.0098C16.3671 23.6806 16.2221 23.2935 15.8925 23.1444L15.8925 23.1444C14.4674 22.5 13.5461 21.0796 13.5461 19.5257C13.5461 17.333 15.33 15.5491 17.5228 15.5491C19.0767 15.5491 20.4972 16.4704 21.1415 17.8954L21.1415 17.8954C21.2905 18.2248 21.6763 18.3713 22.007 18.2223C22.3354 18.0745 22.4817 17.6862 22.3339 17.358Z" fill="#158FFF" stroke="#158FFF" stroke-width="0.15"/>
</g>
</g>
<g id="Group_7">
<g id="Group_8">
<path id="Vector_5" d="M24.8611 17.5711L24.8611 17.5709C23.9784 14.2469 20.9608 11.925 17.5245 11.925C13.3342 11.925 9.925 15.3342 9.925 19.5245C9.925 22.9607 12.2467 25.9781 15.5716 26.861C15.6285 26.8768 15.685 26.8833 15.7395 26.8833C16.0294 26.8833 16.2938 26.6913 16.3711 26.398C16.4639 26.0491 16.2573 25.6908 15.9069 25.5979C13.1557 24.8669 11.2327 22.3695 11.2327 19.5245C11.2327 16.0549 14.0561 13.2327 17.5245 13.2327C20.3683 13.2327 22.8668 15.1545 23.5978 17.9069C23.6894 18.2547 24.0369 18.4637 24.3974 18.3713L24.3982 18.3711C24.7463 18.2781 24.9526 17.9198 24.8611 17.5711Z" fill="#158FFF" stroke="#158FFF" stroke-width="0.15"/>
</g>
</g>
<rect id="Rectangle 5335" x="23" y="6" width="3" height="7" rx="1" fill="#158FFF"/>
<rect id="Rectangle 5336" x="23" y="36" width="3" height="7" rx="1" fill="#158FFF"/>
</g>
</svg>
