<svg width="48" height="48" viewBox="0 0 48 48" fill="none" xmlns="http://www.w3.org/2000/svg">
<g id="Video, &#225;&#186;&#163;nh">
<path id="Vector" d="M29.2904 29.1028L21.8625 33.7457C21.6426 33.8832 21.3899 33.9592 21.1307 33.966C20.8715 33.9728 20.6151 33.9101 20.3883 33.7844C20.1615 33.6587 19.9725 33.4746 19.8409 33.2511C19.7092 33.0277 19.6398 32.7731 19.6398 32.5138V23.2293C19.6402 22.9695 19.7101 22.7146 19.8423 22.491C19.9746 22.2674 20.1643 22.0833 20.3918 21.9578C20.6192 21.8324 20.8762 21.7701 21.1358 21.7776C21.3955 21.7851 21.6484 21.862 21.8683 22.0003L21.8625 21.9974L29.2904 26.6404C29.499 26.7706 29.6711 26.9517 29.7907 27.1666C29.9102 27.3815 29.9732 27.6233 29.9738 27.8692C29.9744 28.1152 29.9125 28.3572 29.794 28.5727C29.6755 28.7882 29.5042 28.9701 29.2962 29.1013L29.2904 29.1042V29.1028ZM8.0179 12.6185C7.63261 12.6185 7.2631 12.7716 6.99066 13.044C6.71822 13.3164 6.56516 13.686 6.56516 14.0712V40.2191C6.56516 40.6044 6.71822 40.9739 6.99066 41.2464C7.2631 41.5188 7.63261 41.6719 8.0179 41.6719H39.9768C40.362 41.6719 40.7316 41.5188 41.004 41.2464C41.2764 40.9739 41.4295 40.6044 41.4295 40.2191V14.0712C41.4295 13.686 41.2764 13.3164 41.004 13.044C40.7316 12.7716 40.362 12.6185 39.9768 12.6185H8.0179ZM35.495 9.71302H39.9782C41.1341 9.71302 42.2426 10.1722 43.0599 10.9895C43.8773 11.8068 44.3364 12.9154 44.3364 14.0712V40.2191C44.3364 41.375 43.8773 42.4835 43.0599 43.3008C42.2426 44.1182 41.1341 44.5773 39.9782 44.5773H8.01936C6.86348 44.5773 5.75495 44.1182 4.93763 43.3008C4.1203 42.4835 3.66113 41.375 3.66113 40.2191V14.0712C3.66113 12.9154 4.1203 11.8068 4.93763 10.9895C5.75495 10.1722 6.86348 9.71302 8.01936 9.71302H12.5025L8.69488 5.90539C8.56 5.77051 8.45301 5.61039 8.38001 5.43416C8.30702 5.25793 8.26945 5.06905 8.26945 4.8783C8.26945 4.68755 8.30702 4.49867 8.38001 4.32245C8.45301 4.14622 8.56 3.98609 8.69488 3.85121C8.82976 3.71634 8.98988 3.60934 9.16611 3.53635C9.34234 3.46335 9.53122 3.42578 9.72197 3.42578C9.91272 3.42578 10.1016 3.46335 10.2778 3.53635C10.4541 3.60934 10.6142 3.71634 10.7491 3.85121L16.6109 9.71302H31.3867L37.2485 3.85121C37.3834 3.71634 37.5435 3.60934 37.7197 3.53635C37.896 3.46335 38.0848 3.42578 38.2756 3.42578C38.4663 3.42578 38.6552 3.46335 38.8314 3.53635C39.0077 3.60934 39.1678 3.71634 39.3027 3.85121C39.4376 3.98609 39.5445 4.14622 39.6175 4.32245C39.6905 4.49867 39.7281 4.68755 39.7281 4.8783C39.7281 5.06905 39.6905 5.25793 39.6175 5.43416C39.5445 5.61039 39.4376 5.77051 39.3027 5.90539L35.495 9.71302Z" fill="#9747FF"/>
</g>
</svg>
