<svg width="64" height="64" viewBox="0 0 64 64" fill="none" xmlns="http://www.w3.org/2000/svg">
<g id="Logo">
<g id="Group 28000">
<g id="Layer 1">
<path id="Vector" fill-rule="evenodd" clip-rule="evenodd" d="M33.9577 34.8891H30.3545L32.1561 38.0891L33.9577 34.8891ZM29.5657 33.4875H34.7465L36.3945 30.5515C35.6099 30.5199 34.8694 30.1802 34.3337 29.6059C34.0552 29.9049 33.7182 30.1433 33.3435 30.3063C32.9689 30.4694 32.5647 30.5535 32.1561 30.5535C31.7475 30.5535 31.3433 30.4694 30.9687 30.3063C30.5941 30.1433 30.257 29.9049 29.9785 29.6059C29.4429 30.1802 28.7023 30.5199 27.9177 30.5515L29.5657 33.4875ZM14.3369 6.64914C17.2921 6.24594 22.7865 5.69714 26.5865 7.99154V28.1803L26.7337 28.4427C26.9106 28.6649 27.1522 28.8266 27.425 28.9053C27.6979 28.984 27.9885 28.9758 28.2565 28.8819C28.5245 28.788 28.7566 28.613 28.9207 28.3812C29.0848 28.1494 29.1726 27.8723 29.1721 27.5883V7.99154H30.7881V27.5883C30.7881 27.9516 30.9324 28.2999 31.1893 28.5568C31.4461 28.8136 31.7945 28.9579 32.1577 28.9579C32.521 28.9579 32.8693 28.8136 33.1262 28.5568C33.383 28.2999 33.5273 27.9516 33.5273 27.5883V7.99154H35.1433V27.5883C35.1428 27.8723 35.2307 28.1494 35.3947 28.3812C35.5588 28.613 35.7909 28.788 36.0589 28.8819C36.3269 28.9758 36.6175 28.984 36.8904 28.9053C37.1633 28.8266 37.4049 28.6649 37.5817 28.4427L37.7289 28.1803V7.99154C41.5289 5.70354 45.8089 6.12754 49.9785 6.65554V36.9899C42.8617 37.2715 36.9401 39.8587 32.1641 45.1659C27.3721 39.8587 21.4441 37.2715 14.3369 36.9899V6.64914Z" fill="#F58220"/>
<path id="Vector_2" fill-rule="evenodd" clip-rule="evenodd" d="M3.59673 14.0903C6.42553 12.8679 8.86713 12.5767 11.7039 12.4023V39.4295C21.9279 39.4919 27.3327 42.7799 31.0015 47.9095C31.0367 48.0327 30.6815 48.0903 28.9119 47.1815C20.0031 43.0567 13.0911 42.9703 4.35673 45.8231C3.57913 46.0135 3.23673 45.6151 3.27673 44.9303C3.25326 34.8866 3.22873 24.8434 3.20313 14.8007C3.18587 14.656 3.2146 14.5095 3.28524 14.382C3.35588 14.2545 3.46486 14.1525 3.59673 14.0903Z" fill="#007E41"/>
<path id="Vector_3" d="M46.6324 52.2567H50.538C50.6123 52.2543 50.6864 52.2672 50.7555 52.2947C50.8246 52.3223 50.8873 52.3638 50.9396 52.4167C50.9933 52.4734 51.0351 52.5403 51.0626 52.6134C51.09 52.6865 51.1026 52.7643 51.0996 52.8423C51.1036 52.9265 51.0902 53.0106 51.0602 53.0894C51.0302 53.1681 50.9842 53.2398 50.9252 53.2999C50.8707 53.3552 50.8057 53.3988 50.7339 53.4283C50.6621 53.4577 50.5851 53.4723 50.5076 53.4711H46.6324V52.2567ZM46.6692 54.9287H50.73C50.8088 54.9246 50.8876 54.9371 50.9613 54.9653C51.035 54.9936 51.102 55.0371 51.1578 55.0929C51.2136 55.1487 51.2571 55.2157 51.2854 55.2894C51.3136 55.3631 51.3261 55.4419 51.322 55.5207C51.3307 55.6075 51.321 55.6951 51.2934 55.7779C51.2658 55.8606 51.221 55.9366 51.162 56.0007C51.0434 56.1035 50.8899 56.1568 50.7332 56.1495H46.6692V54.9287ZM44.4996 55.4007V57.8183H50.8196C51.1998 57.8228 51.5799 57.8014 51.9572 57.7543C52.2449 57.7175 52.5232 57.6274 52.778 57.4887C53.0215 57.3499 53.2156 57.1384 53.3332 56.8839C53.4796 56.5429 53.5474 56.1732 53.5316 55.8023C53.5448 55.5028 53.4901 55.2041 53.3716 54.9287C53.2841 54.7298 53.1449 54.5579 52.9684 54.4311C52.829 54.331 52.6714 54.2592 52.5044 54.2199C52.3661 54.1895 52.2251 54.1734 52.0836 54.1719V54.1447C52.1793 54.1402 52.274 54.123 52.3652 54.0935C52.51 54.0474 52.6439 53.9723 52.7588 53.8727C52.9195 53.7349 53.0446 53.5604 53.1236 53.3639C53.239 53.082 53.2935 52.7788 53.2836 52.4743C53.3 52.1283 53.2238 51.7842 53.0628 51.4775C52.9282 51.2394 52.7268 51.0458 52.4836 50.9207C52.249 50.8025 51.9956 50.7261 51.7348 50.6951C51.4346 50.6616 51.1328 50.6461 50.8308 50.6487H44.5108L44.4996 55.4007ZM41.442 50.6487V57.8183H43.682V50.6487H41.442ZM36.002 56.0887V50.6487H33.762V57.8183H40.8372V56.0855L36.002 56.0887ZM27.442 56.1511V54.9671H32.722V53.5159H27.442V52.3095H33.0676V50.6487H25.2068V57.8183H33.0676V56.1495L27.442 56.1511ZM22.1508 50.6519V57.8215H24.3908V50.6487L22.1508 50.6519ZM16.1204 56.0231L13.258 50.6487H10.7764L14.682 57.7911H17.5364L21.4644 50.6487H18.9844L16.1204 56.0231Z" fill="#007E41"/>
<path id="Vector_4" fill-rule="evenodd" clip-rule="evenodd" d="M60.4832 14.0903C57.6496 12.8679 55.2032 12.5767 52.3712 12.4023V39.4295C42.1472 39.4919 36.7408 42.7799 33.0736 47.9095C33.0384 48.0327 33.3936 48.0903 35.1632 47.1815C44.0656 43.0647 50.984 42.9783 59.7184 45.8311C60.496 46.0215 60.8384 45.6231 60.7984 44.9383L60.8704 14.8087C60.8902 14.6634 60.8634 14.5156 60.7938 14.3865C60.7242 14.2574 60.6155 14.1537 60.4832 14.0903Z" fill="#007E41"/>
</g>
</g>
</g>
</svg>
